<?xml version="1.0" encoding="utf-8"?>
<!-- Generator: Adobe Illustrator 15.0.2, SVG Export Plug-In  -->
<!DOCTYPE svg PUBLIC "-//W3C//DTD SVG 1.1//EN" "http://www.w3.org/Graphics/SVG/1.1/DTD/svg11.dtd" [
	<!ENTITY ns_flows "http://ns.adobe.com/Flows/1.0/">
]>
<svg version="1.1"
	 xmlns="http://www.w3.org/2000/svg" xmlns:xlink="http://www.w3.org/1999/xlink" xmlns:a="http://ns.adobe.com/AdobeSVGViewerExtensions/3.0/"
	 x="0px" y="0px" width="30px" height="25px" viewBox="-3.724 -5.481 30 25"
	 overflow="visible" enable-background="new -3.724 -5.481 30 25" xml:space="preserve">
<defs>
</defs>
<path fill-rule="evenodd" clip-rule="evenodd" fill="#2C3E50" d="M16.932,1.065c0.139,0.041,0.276,0.081,0.417,0.119
	c0.417,0.426,0.998,1.254,0.411,1.703c0.412-0.243,0.972,0.183,1.451,0.191c0.219,0.004,0.371-0.17,0.567-0.137
	c0.947,0.166,1.292,1.566,1.083,2.498c0.309,0.315,0.355,0.779,0.57,1.143c0.566,0.101,0.809,0.377,1.193,0.573
	c0.146,0.268,0.088,0.651,0.178,0.953c-0.101,0.347-0.201,0.695-0.303,1.042c-0.549,1.088-1.258,1.891-2.422,1.86
	c-0.389,0.888-1.271,0.859-2.328,1.285c-1.131,0.455-2.023,1.166-3.211,0.426c-0.646,0.056-1.215,0.838-1.991,0.63
	c-0.208-0.058-0.366-0.505-0.589-0.549c0,0-1.189,0.484-1.355,0.515c-0.5,0.081-1.075-0.032-1.514,0.013
	c-0.857,0.09-1.689,0.617-2.672,0.13c-0.352-0.04-0.016-0.458-0.296-0.538c-0.688,0.306-1.566,0.268-2.415,0.28
	c-0.186-0.053-0.371-0.106-0.556-0.159c-0.298-0.207-0.515-0.458-0.696-0.73c-0.604,0.558-1.921-0.051-1.683-0.938
	c-1.325-0.407-0.615-1.105-0.274-2.188c0.246-0.773,0.143-1.675,0.634-1.924C0.834,6.959,0.885,6.463,0.809,6.041
	c0.034-0.115,0.066-0.231,0.1-0.347C1.198,5.332,1.666,5.3,2.002,5.03C1.94,4.573,2.043,4.087,2.298,3.759
	c0.22-0.287,0.613-0.196,1.032-0.453c0.417-0.255,0.615-0.632,0.977-0.772C4.799,2.344,5.354,2.348,5.741,2.27
	c0.349-1.2,1.217-1.462,2.327-1.285c0.745-0.411,1.83-1.558,2.746-0.635C12.15-0.718,15.123,1.487,16.932,1.065z M17.404,2.555
	c0.438-1.03-2.225-1.635-3.075-1.341c-0.276,0.521,0.06,0.706,0.243,0.977c0.299-0.13,0.578-0.3,0.974-0.244
	c-0.268,0.217-0.645,0.235-0.695,0.851c0.212,0.502,0.657,0.388,1.07,0.46c0.97,0.17,1.913,0.881,1.745,1.783
	c-0.133,0.708-1.028,1.011-1.09,1.417c-0.137,0.879,1.521,0.843,2.283,0.962c0.26-0.274,0.217-0.689,0.211-0.991
	c0.161-0.021,0.268-0.154,0.479-0.088c0.387,0.576-0.33,1.479-0.908,1.317c0.006,0.426,0.406,0.634,0.27,1.134
	c0.985-0.094,1.011-1.915,1.859-2.249c-0.017-0.63-0.693-1.157-1.557-1.128c-0.319,0.267-0.633,1.115-1.066,0.821
	c0.426-0.995,1.274-1.221,2.387-0.966c0.066-0.834-0.432-1.668-1.014-1.949c0.948,0.49,0.244,1.971-0.684,1.834
	c0.195-0.363,0.359-0.259,0.479-0.614c0.507-1.492-1.875-1.33-2.883-1.739C16.863,2.785,17.257,2.906,17.404,2.555z M10.963,0.619
	c-0.09,0.196,0.043,0.442,0.006,0.753c0.74-0.426,2.105-0.208,2.881-0.068C13.354,0.823,11.303-0.143,10.963,0.619z M9.801,0.208
	C9.414,0.491,8.956,0.651,8.594,0.989C8.705,1.091,8.889,0.848,8.873,1.07C7.844,1.21,6.496,0.785,6.196,2.252
	c0.696,0.272,1.089-0.204,1.63,0.094c-0.37-0.085,0.332-0.302,0.317-0.06C8.02,2.559,7.812,2.676,7.518,2.633
	C7.4,2.434,6.945,2.216,6.801,2.501c0.307,0.104,0.213,0.428,0.349,0.628c0.249-0.153,0.462,0.209,0.673,0.269
	c0.491-0.375,1.145-0.469,1.417-1.243C9.207,1.704,8.55,1.521,8.115,1.606c0.402-0.46,1.523-0.285,1.622,0.39
	C9.945,1.71,10.314,1.7,10.514,1.393C10.463,0.893,10.396,0.402,9.801,0.208z M8.012,3.53c0.047,0.285,0.04,0.672-0.243,0.834
	c1.566,0.038,2.835,0.821,3.234,1.841c0.415,0.119,0.832,0.24,1.249,0.359c1.207-0.072,1.562-2.256,3.156-1.271
	c-0.182,0.309-0.664,0.066-1.005,0.085c-0.181,0.241-0.643,0.528-0.608,0.803c0.695-0.162,1.332,0.329,1.955,0.264
	c0.469-0.047,1.315-0.63,1.439-1.315c0.18-1.034-1.62-2.015-2.907-1.668c-0.72,0.191-1.526,1.724-2.149,0.66
	c0.633-0.35,1.747-0.262,1.92-1.18C14.304,1.61,11.295,0.88,10.58,1.94c0.902,0.357,2.332,0.426,2.697,1.079
	c-1.04,0.46-2.134-0.857-3.374-0.825C9.714,2.346,9.528,2.5,9.426,2.81c0.858,0.115,1.373,0.855,1.682,1.464
	C10.45,3.398,8.912,2.836,8.012,3.53z M16.293,11.875c1.726,0.004,3.586-4.203,0.457-4.463c-0.517,0.188-0.928,1.141-1.521,0.841
	c0.254-0.496,0.722-0.601,1.037-0.981c-0.103-0.273-0.402-0.438-0.732-0.589c0.021,0.404-0.197,0.693-0.57,0.666
	c-0.221-0.17-0.11-0.523-0.325-0.698c-0.993-0.44-1.601,0.132-2.396,0.211c-0.605,0.062-1.229-0.16-1.512,0.015
	c-1.045,0.653-0.463,2.458,0.787,2.487c0.369-0.289,0.826-0.408,1.384-0.353c-0.075-0.37-0.617-0.479-0.475-0.966
	c0.114-0.007,0.206-0.052,0.319-0.061c0.688,1.143,3.301,1.309,4.596,1.559c-0.387,0.531-1.217,0.268-1.989,0.102
	c-0.161,0.596,0.536,0.717,1.002,0.966c-0.191,0.232-0.474,0.198-0.757,0.009c-0.26,0.506-0.822,0.814-0.76,1.588
	c0.094,0.136,0.332,0.374,0.547,0.459c0.825,0.314,3.866-0.879,4.177-1.428c0.251-0.442,0.021-0.892,0.253-1.134
	c0.319,0.174,0.289,0.544,0.711,0.659c0.994-0.26,1.994-2.191,1.581-3.383c-0.343-0.18-0.612-0.4-1.052-0.528
	c-0.387,0.354-0.676,0.886-0.849,1.635c0.568,0.134,1.058,0.312,0.971,0.809c-0.124,0.093-0.222,0.231-0.428,0.177
	c-0.3-0.309-0.341-0.738-0.902-0.79c-0.778-0.063-0.904,1-1.258,1.747c-0.519,1.111-1.664,1.303-2.406,1.564
	C16.199,11.924,16.262,11.926,16.293,11.875z M4.009,3.048c0.3,0.05,0.475-0.125,0.772-0.076c-0.153,0.21-0.459,0.153-0.574,0.435
	c0.02,0.165,0.015,0.34,0.087,0.479c0.776-0.13,2.099-0.301,2.271,0.733c0.691,0.106,0.368-0.372,0.768-0.834
	C7.129,3.18,6.435,3.642,6.154,3.444c0.114-0.146,0.332-0.102,0.349-0.427C6.03,2.167,4.381,2.359,4.009,3.048z M5.605,5.846
	C5.852,5.584,6.068,5.27,6.554,5.445C5.981,6.21,4.826,6.353,4.769,7.713C5.245,7.658,5.92,7.966,6.428,7.968
	c0.328-0.255-0.117-0.63,0.391-0.565c0.165,1.204-1.52,0.834-2.566,0.535c-0.483,1.012-1.669,3.045-1.277,4.15
	c0.375,1.053,1.807,0.859,2.779,0.804c0.9-0.626,1.617-1.587,2.272-2.655c0.341-0.115,0.89-0.527,1.166-0.113
	c-0.213,0.379-0.409,0.238-0.596-0.023c-0.731,0.809-1.634,1.828-1.937,3.054c1.6,0.713,2.726-0.347,4.299-0.036
	c0.318-0.281,0.74-0.328,1.047-0.751c0.34-0.475,0.291-1.3,0.879-1.479c0.43,0.651-0.871,1.841-0.045,2.248
	c0.484,0.242,1.592-0.535,1.385-1.409c-0.051,0.336-0.606,0.312-0.726,0.17c0.4-0.604,1.271-0.404,1.464-1.159
	c0.283-1.109-2.125-2.07-2.987-1.392c-0.472,0.374-0.738,1.568-1.339,2.023c-0.322,0.247-0.857,0.421-1.213,0.549
	c-0.363,0.134-1.112,0.523-1.264-0.062c1.16-0.066,2.056-0.2,2.428-1.104c0.49-1.17-0.751-2.2-2.076-2.181
	c-1.836,0.021-2.983,4.368-4.4,2.189c1.251,0.272,1.482-0.577,2.44-1.4c0.7-0.608,1.157-0.709,1.502-1.3
	C8.66,7.037,7.775,6.73,6.82,6.347c0.816-0.419,1.872,0.072,1.984,0.951c0.049,0.415-0.211,0.708-0.025,1.121
	c0.234,0.038,0.413-0.021,0.668,0.042C9.858,7.368,10.4,5.878,9.564,5.183C7.82,4.559,6.079,4.512,5.605,5.846z M2.373,5.061
	c0.314-0.17,0.654-0.293,1.063-0.293C2.89,5.415,1.539,5.044,1.354,5.972C1.085,7.324,3.025,6.364,3.52,6.824
	C2.641,6.975,1.754,6.815,1.341,7.853c-0.13,0.319-0.058,0.73-0.164,1.079c-0.224,0.738-1.226,1.385-0.722,1.977
	C1.058,10.62,1.23,9.56,1.732,9.092C1.89,8.824,1.724,8.579,1.915,8.468c0.171,0.101,0.426,0.153,0.515,0.3
	c-0.719,0.89-1.894,3.559-0.051,3.299C2.48,11.013,3.23,7.845,4.292,7.802C4.137,7.125,4.631,6.566,5.03,6.283
	C4.686,5.517,3.581,5.458,2.877,5.658c0.592-0.345,1.721-0.651,2.385,0.089C5.494,5.29,5.9,5.143,6.205,4.815
	c-0.396-1.039-1.496-0.643-2.43-0.702C3.607,2.828,2.032,3.923,2.373,5.061z"/>
</svg>
