<?xml version="1.0" encoding="utf-8"?>
<!-- Generator: Adobe Illustrator 15.0.2, SVG Export Plug-In  -->
<!DOCTYPE svg PUBLIC "-//W3C//DTD SVG 1.1//EN" "http://www.w3.org/Graphics/SVG/1.1/DTD/svg11.dtd" [
	<!ENTITY ns_flows "http://ns.adobe.com/Flows/1.0/">
]>
<svg version="1.1"
	 xmlns="http://www.w3.org/2000/svg" xmlns:xlink="http://www.w3.org/1999/xlink" xmlns:a="http://ns.adobe.com/AdobeSVGViewerExtensions/3.0/"
	 x="0px" y="0px" width="30px" height="25px" viewBox="-9.508 -2.333 30 25"
	 overflow="visible" enable-background="new -9.508 -2.333 30 25" xml:space="preserve">
<defs>
</defs>
<path fill="#35495E" d="M10.938,13.191c0.009,0.248-0.186,0.457-0.436,0.465l-5.28,0.173c-0.248,0.008-0.454-0.186-0.463-0.435
	c-0.008-0.248,0.185-0.456,0.433-0.463l5.282-0.174C10.724,12.749,10.931,12.943,10.938,13.191z"/>
<path fill="#35495E" d="M1.098,5.577c-0.01-0.249,0.186-0.456,0.435-0.465l5.28-0.173c0.249-0.008,0.456,0.185,0.465,0.435
	C7.285,5.622,7.092,5.83,6.843,5.838L1.562,6.011C1.312,6.02,1.104,5.826,1.098,5.577z"/>
<path fill="#35495E" d="M11.854,2.409c0.009,0.248-0.186,0.456-0.435,0.464L6.14,3.047C5.891,3.055,5.684,2.861,5.675,2.612
	C5.667,2.364,5.86,2.157,6.109,2.149l5.28-0.175C11.64,1.966,11.847,2.161,11.854,2.409z"/>
<path fill="#35495E" d="M6.932,17.195c0.007,0.249-0.187,0.456-0.436,0.464l-5.141,0.17c-0.249,0.008-0.456-0.187-0.465-0.435
	c-0.008-0.249,0.187-0.457,0.436-0.464l5.14-0.17C6.714,16.751,6.923,16.947,6.932,17.195z"/>
<path fill="#35495E" d="M11.558,0c-0.248,0.009-0.442,0.216-0.435,0.465c0.051,1.556-0.137,3.023-0.506,4.308L8.34,4.847
	C8.093,4.855,7.897,5.063,7.905,5.311c0.01,0.249,0.217,0.443,0.466,0.436l1.938-0.064C9.45,7.913,7.997,9.398,6.302,9.455
	C3.979,9.532,1.927,6.902,1.188,3.25l3.424-0.112c0.248-0.008,0.443-0.216,0.435-0.463C5.037,2.426,4.829,2.232,4.581,2.24
	L1.036,2.356C0.967,1.851,0.918,1.334,0.901,0.802C0.894,0.555,0.685,0.359,0.436,0.367C0.187,0.375-0.008,0.583,0,0.832
	c0.147,4.455,2.138,8.15,4.708,9.21c-2.495,1.226-4.238,5.043-4.09,9.499c0.008,0.247,0.217,0.442,0.465,0.435
	c0.246-0.008,0.44-0.217,0.434-0.464c-0.068-2.084,0.292-4.015,0.945-5.549l1.234-0.04c0.247-0.009,0.441-0.217,0.434-0.464
	c-0.009-0.248-0.216-0.442-0.465-0.436l-0.749,0.024c0.866-1.52,2.065-2.48,3.421-2.524c2.297-0.078,4.331,2.489,5.091,6.074
	L8.03,16.709c-0.249,0.008-0.443,0.216-0.435,0.465c0.007,0.248,0.217,0.442,0.464,0.434l3.528-0.116
	c0.078,0.544,0.132,1.105,0.151,1.682c0.007,0.248,0.215,0.443,0.465,0.435c0.249-0.007,0.443-0.215,0.434-0.463
	c-0.146-4.457-2.136-8.151-4.707-9.21c2.496-1.227,4.238-5.044,4.092-9.5C12.014,0.188,11.805-0.007,11.558,0z"/>
</svg>
