<?xml version="1.0" encoding="utf-8"?>
<!-- Generator: Adobe Illustrator 15.0.2, SVG Export Plug-In  -->
<!DOCTYPE svg PUBLIC "-//W3C//DTD SVG 1.1//EN" "http://www.w3.org/Graphics/SVG/1.1/DTD/svg11.dtd" [
	<!ENTITY ns_flows "http://ns.adobe.com/Flows/1.0/">
]>
<svg version="1.1"
	 xmlns="http://www.w3.org/2000/svg" xmlns:xlink="http://www.w3.org/1999/xlink" xmlns:a="http://ns.adobe.com/AdobeSVGViewerExtensions/3.0/"
	 x="0px" y="0px" width="30px" height="25px" viewBox="-4.479 -4.221 30 25"
	 overflow="visible" enable-background="new -4.479 -4.221 30 25" xml:space="preserve">
<defs>
</defs>
<circle fill="#3B97D3" cx="10.874" cy="5.239" r="1.79"/>
<path fill="#FFFFFF" d="M12.876,4.559c0.125,0.365,0.146,0.759,0.061,1.139c-0.122,0.551-0.451,1.022-0.927,1.324
	c-0.477,0.303-1.043,0.403-1.594,0.279C9.689,7.141,9.114,6.624,8.874,5.92C8.749,5.553,8.728,5.16,8.812,4.78
	c0.253-1.138,1.384-1.857,2.521-1.604C12.059,3.337,12.636,3.854,12.876,4.559z M9.486,5.711c0.167,0.489,0.566,0.847,1.069,0.958
	c0.383,0.085,0.775,0.017,1.105-0.194c0.331-0.209,0.559-0.536,0.644-0.918c0.171-0.771-0.349-1.579-1.112-1.749
	C10.403,3.633,9.62,4.131,9.443,4.921C9.385,5.185,9.4,5.458,9.486,5.711z"/>
<circle fill="#35495E" cx="5.483" cy="11.484" r="3.346"/>
<path fill="#FFFFFF" d="M5.479,15.154c-0.671,0-1.33-0.185-1.906-0.536c-1.728-1.054-2.276-3.316-1.224-5.043
	c0.672-1.103,1.845-1.76,3.137-1.76C6.158,7.814,6.817,8,7.393,8.35c1.728,1.054,2.277,3.316,1.225,5.044
	C7.944,14.496,6.772,15.154,5.479,15.154z M5.486,8.461c-1.064,0-2.03,0.542-2.584,1.45c-0.867,1.422-0.415,3.286,1.009,4.154
	c0.474,0.289,1.017,0.441,1.568,0.441c1.064,0,2.031-0.542,2.585-1.45c0.866-1.423,0.414-3.286-1.009-4.154
	C6.582,8.615,6.038,8.461,5.486,8.461z"/>
<circle fill="#3B97D3" cx="8.311" cy="13.969" r="1.789"/>
<path fill="#FFFFFF" d="M8.309,16.083c-0.386,0-0.766-0.107-1.098-0.31c-0.482-0.293-0.821-0.757-0.954-1.305
	c-0.133-0.549-0.045-1.117,0.25-1.599c0.386-0.635,1.061-1.014,1.805-1.014c0.388,0,0.767,0.107,1.099,0.309
	c0.995,0.606,1.312,1.909,0.705,2.904C9.729,15.704,9.053,16.083,8.309,16.083z M8.312,12.503c-0.517,0-0.984,0.262-1.252,0.703
	c-0.204,0.335-0.266,0.729-0.173,1.109c0.092,0.38,0.327,0.702,0.661,0.905c0.675,0.411,1.607,0.18,2.015-0.488
	c0.42-0.69,0.201-1.593-0.489-2.015C8.843,12.577,8.579,12.503,8.312,12.503z"/>
<circle fill="#3B97D3" cx="2.114" cy="11.26" r="1.79"/>
<path fill="#FFFFFF" d="M2.112,13.374c-0.387,0-0.766-0.107-1.098-0.31c-0.482-0.293-0.821-0.758-0.954-1.306
	c-0.133-0.549-0.045-1.117,0.249-1.599c0.387-0.635,1.062-1.014,1.806-1.014c0.388,0,0.767,0.107,1.099,0.309
	c0.994,0.606,1.312,1.909,0.705,2.904C3.532,12.995,2.856,13.374,2.112,13.374z M2.115,9.794c-0.516,0-0.984,0.263-1.253,0.704
	c-0.203,0.334-0.265,0.728-0.172,1.108c0.092,0.381,0.326,0.702,0.661,0.906c0.674,0.41,1.607,0.179,2.015-0.488
	c0.42-0.691,0.2-1.594-0.489-2.014C2.646,9.868,2.383,9.794,2.115,9.794z"/>
<circle fill="#35495E" cx="14.184" cy="5.592" r="3.346"/>
<path fill="#FFFFFF" d="M17.659,4.411c0.217,0.635,0.254,1.319,0.107,1.978c-0.439,1.975-2.404,3.225-4.378,2.786
	c-1.261-0.28-2.262-1.178-2.679-2.401c-0.217-0.636-0.254-1.32-0.108-1.978c0.44-1.975,2.404-3.226,4.379-2.787
	C16.241,2.291,17.242,3.188,17.659,4.411z M11.322,6.564c0.344,1.007,1.169,1.747,2.206,1.978c1.626,0.362,3.245-0.668,3.606-2.295
	c0.121-0.542,0.09-1.104-0.089-1.627c-0.343-1.007-1.168-1.748-2.206-1.979c-1.626-0.36-3.244,0.669-3.605,2.295
	C11.114,5.478,11.145,6.042,11.322,6.564z"/>
<circle fill="#3B97D3" cx="15.624" cy="2.114" r="1.79"/>
<path fill="#FFFFFF" d="M17.626,1.434c0.125,0.365,0.146,0.759,0.061,1.139c-0.122,0.551-0.451,1.022-0.927,1.324
	c-0.477,0.303-1.043,0.403-1.594,0.279c-0.727-0.16-1.302-0.677-1.542-1.381c-0.125-0.367-0.146-0.76-0.062-1.14
	c0.253-1.138,1.384-1.857,2.521-1.604C16.809,0.212,17.386,0.729,17.626,1.434z M14.236,2.586c0.167,0.489,0.566,0.847,1.069,0.958
	c0.383,0.085,0.775,0.017,1.105-0.194c0.331-0.209,0.559-0.536,0.644-0.918c0.171-0.771-0.349-1.579-1.112-1.749
	c-0.789-0.175-1.572,0.324-1.749,1.113C14.135,2.06,14.15,2.333,14.236,2.586z"/>
<circle fill="#3B97D3" cx="15.06" cy="8.853" r="1.79"/>
<path fill="#FFFFFF" d="M17.062,8.172c0.124,0.366,0.146,0.759,0.061,1.139C17,9.863,16.67,10.333,16.194,10.636
	c-0.477,0.303-1.042,0.403-1.593,0.28c-0.727-0.161-1.303-0.679-1.543-1.382c-0.125-0.367-0.146-0.76-0.062-1.14
	c0.253-1.137,1.383-1.857,2.521-1.604C16.244,6.951,16.821,7.468,17.062,8.172z M13.672,9.325c0.166,0.488,0.566,0.847,1.07,0.959
	c0.382,0.084,0.773,0.016,1.104-0.195c0.331-0.21,0.56-0.535,0.644-0.918c0.171-0.77-0.35-1.579-1.112-1.75
	c-0.789-0.174-1.573,0.325-1.748,1.113C13.57,8.798,13.586,9.072,13.672,9.325z"/>
</svg>
