<?xml version="1.0" encoding="utf-8"?>
<!-- Generator: Adobe Illustrator 15.0.2, SVG Export Plug-In  -->
<!DOCTYPE svg PUBLIC "-//W3C//DTD SVG 1.1//EN" "http://www.w3.org/Graphics/SVG/1.1/DTD/svg11.dtd" [
	<!ENTITY ns_flows "http://ns.adobe.com/Flows/1.0/">
]>
<svg version="1.1"
	 xmlns="http://www.w3.org/2000/svg" xmlns:xlink="http://www.w3.org/1999/xlink" xmlns:a="http://ns.adobe.com/AdobeSVGViewerExtensions/3.0/"
	 x="0px" y="0px" width="30px" height="25px" viewBox="-3.912 -2.465 30 25"
	 overflow="visible" enable-background="new -3.912 -2.465 30 25" xml:space="preserve">
<defs>
</defs>
<path fill="#2C3E50" d="M17.588,16.416c-0.646,0-1.172-0.524-1.172-1.172c0-0.648,0.525-1.173,1.172-1.173
	c1.939,0,3.518-1.578,3.518-3.518c0-1.939-1.578-3.518-3.518-3.518c-0.285,0-0.586,0.048-0.95,0.152l-1.26,0.36L15.16,6.254
	c-0.382-2.266-2.318-3.909-4.607-3.909c-2.587,0-4.69,2.104-4.69,4.69c0,0.319,0.032,0.639,0.097,0.951l0.286,1.406L4.58,9.374
	c-1.184,0.007-2.235,1.058-2.235,2.352c0,1.293,1.052,2.345,2.346,2.345c0.646,0,1.172,0.524,1.172,1.173
	c0,0.648-0.525,1.172-1.172,1.172c-2.587,0-4.69-2.104-4.69-4.69c0-2.182,1.498-4.021,3.519-4.542
	C3.518,7.134,3.518,7.084,3.518,7.035C3.518,3.155,6.674,0,10.553,0c3.033,0,5.656,1.921,6.625,4.708
	c3.446-0.286,6.273,2.477,6.273,5.845C23.451,13.785,20.82,16.416,17.588,16.416z"/>
<path fill="#3B97D3" d="M9.967,16.416l1.172-3.518l1.173,3.518c0.216,0.648-0.133,1.347-0.782,1.563
	c-0.646,0.216-1.348-0.134-1.562-0.781C9.878,16.933,9.884,16.661,9.967,16.416z"/>
<path fill="#3B97D3" d="M13.484,18.761l1.172-3.518l1.173,3.518c0.216,0.648-0.133,1.347-0.782,1.563
	c-0.646,0.216-1.348-0.134-1.562-0.781C13.396,19.278,13.401,19.006,13.484,18.761z"/>
<path fill="#3B97D3" d="M6.449,18.761l1.172-3.518l1.173,3.518c0.216,0.648-0.133,1.347-0.782,1.563
	c-0.646,0.216-1.348-0.134-1.562-0.781C6.36,19.278,6.366,19.006,6.449,18.761z"/>
</svg>
