<?xml version="1.0" encoding="utf-8"?>
<!-- Generator: Adobe Illustrator 15.0.2, SVG Export Plug-In  -->
<!DOCTYPE svg PUBLIC "-//W3C//DTD SVG 1.1//EN" "http://www.w3.org/Graphics/SVG/1.1/DTD/svg11.dtd" [
	<!ENTITY ns_flows "http://ns.adobe.com/Flows/1.0/">
]>
<svg version="1.1"
	 xmlns="http://www.w3.org/2000/svg" xmlns:xlink="http://www.w3.org/1999/xlink" xmlns:a="http://ns.adobe.com/AdobeSVGViewerExtensions/3.0/"
	 x="0px" y="0px" width="30px" height="25px" viewBox="-1.521 -4.219 30 25"
	 overflow="visible" enable-background="new -1.521 -4.219 30 25" xml:space="preserve">
<defs>
</defs>
<rect y="13.594" fill="#35495E" width="26.959" height="1"/>
<path fill="#3B97D3" d="M10.649,0.508c-0.225-0.026-0.436-0.039-0.633-0.039C9.308,0.479,8.763,0.701,8.382,1.133
	C7.997,1.566,7.804,2.129,7.804,2.822c0,0.698,0.189,1.262,0.57,1.688c0.375,0.438,0.924,0.66,1.643,0.665
	c0.188,0,0.398-0.018,0.633-0.055c0.23-0.031,0.426-0.092,0.586-0.18l0.031,0.47c-0.16,0.083-0.361,0.143-0.602,0.179
	c-0.244,0.037-0.461,0.056-0.648,0.056C9.151,5.635,8.478,5.374,7.999,4.863c-0.49-0.506-0.734-1.186-0.734-2.041
	c0.004-0.845,0.252-1.525,0.742-2.04C8.491,0.271,9.161,0.01,10.017,0c0.178,0,0.393,0.013,0.648,0.039
	c0.25,0.031,0.451,0.085,0.602,0.164l-0.031,0.5C11.06,0.609,10.864,0.545,10.649,0.508z"/>
<path fill="#3B97D3" d="M12.722,0.093h0.539V2.51h2.76V0.093h0.541v5.458h-0.541V2.979h-2.76v2.572h-0.539V0.093z"/>
<path fill="#3B97D3" d="M18.015,5.103h0.094c0.127,0,0.262-0.01,0.404-0.026c0.141-0.014,0.273-0.043,0.398-0.089
	c0.127-0.048,0.23-0.12,0.311-0.217c0.076-0.097,0.113-0.229,0.113-0.395c0-0.103-0.023-0.193-0.072-0.27
	c-0.049-0.072-0.111-0.133-0.191-0.182c-0.17-0.09-0.357-0.135-0.564-0.135c-0.283,0.004-0.553,0.067-0.809,0.192l-0.031-0.337
	c0.273-0.107,0.564-0.162,0.875-0.166c0.312,0,0.58,0.067,0.805,0.202c0.225,0.142,0.34,0.373,0.348,0.694
	c-0.004,0.218-0.074,0.401-0.209,0.55c-0.137,0.152-0.318,0.258-0.543,0.315v0.011c0.244,0.014,0.432,0.103,0.559,0.264
	c0.129,0.16,0.193,0.364,0.193,0.612c-0.008,0.328-0.135,0.582-0.379,0.763c-0.246,0.184-0.555,0.275-0.928,0.279
	c-0.309,0.003-0.605-0.045-0.893-0.146l0.043-0.342c0.15,0.065,0.303,0.111,0.455,0.135c0.145,0.028,0.283,0.041,0.414,0.041
	c0.229,0,0.439-0.06,0.633-0.181c0.189-0.118,0.289-0.312,0.295-0.581c0-0.155-0.031-0.28-0.098-0.373
	c-0.066-0.09-0.148-0.157-0.248-0.202c-0.102-0.048-0.207-0.079-0.316-0.093c-0.117-0.011-0.227-0.016-0.326-0.016h-0.332V5.103z"/>
<rect x="12.979" y="8.1" fill="#3B97D3" width="1" height="3.763"/>
</svg>
