<?xml version="1.0" encoding="utf-8"?>
<!-- Generator: Adobe Illustrator 15.0.2, SVG Export Plug-In  -->
<!DOCTYPE svg PUBLIC "-//W3C//DTD SVG 1.1//EN" "http://www.w3.org/Graphics/SVG/1.1/DTD/svg11.dtd" [
	<!ENTITY ns_flows "http://ns.adobe.com/Flows/1.0/">
]>
<svg version="1.1"
	 xmlns="http://www.w3.org/2000/svg" xmlns:xlink="http://www.w3.org/1999/xlink" xmlns:a="http://ns.adobe.com/AdobeSVGViewerExtensions/3.0/"
	 x="0px" y="0px" width="30px" height="25px" viewBox="-5.276 -2.647 30 25"
	 overflow="visible" enable-background="new -5.276 -2.647 30 25" xml:space="preserve">
<defs>
</defs>
<path fill="#3B97D3" d="M0.441,15.667c-0.082,0-0.164-0.038-0.217-0.109c-0.088-0.121-0.062-0.289,0.059-0.376l2.68-1.965
	c0.119-0.088,0.285-0.062,0.373,0.058c0.088,0.118,0.062,0.286-0.057,0.375L0.6,15.614C0.551,15.65,0.496,15.667,0.441,15.667z"/>
<path fill="#3B97D3" d="M16.07,18.672c-0.215,0-0.393-0.17-0.406-0.388c-0.01-0.224,0.164-0.415,0.387-0.426
	c0.785-0.039,1.402-0.281,1.838-0.715c0.758-0.76,0.783-1.936,0.672-2.791c-0.031-0.224,0.127-0.427,0.35-0.455
	c0.223-0.03,0.424,0.126,0.455,0.35c0.195,1.485-0.117,2.685-0.9,3.472c-0.584,0.582-1.383,0.899-2.377,0.95
	C16.082,18.672,16.076,18.672,16.07,18.672z"/>
<path fill="#3B97D3" d="M1.148,3.903c-0.002,0-0.004,0-0.008,0C0.916,3.899,0.738,3.717,0.742,3.491
	c0.02-1.067,0.342-1.918,0.957-2.536c0.584-0.583,1.383-0.903,2.375-0.952c0.221-0.025,0.412,0.162,0.424,0.387
	c0.014,0.222-0.16,0.415-0.385,0.425c-0.785,0.041-1.402,0.28-1.84,0.714C1.812,1.99,1.572,2.654,1.555,3.505
	C1.551,3.728,1.369,3.903,1.148,3.903z"/>
<path fill="#2C3E50" d="M18.957,9.728c0,5.235-4.242,9.478-9.48,9.478C4.244,19.205,0,14.963,0,9.728
	c0-5.234,4.244-9.476,9.477-9.476C14.715,0.251,18.957,4.494,18.957,9.728z"/>
<path fill="#3B97D3" d="M15.83,18.676c-2.764,0-6.578-2.042-9.811-5.276c-3.258-3.256-5.328-7.146-5.277-9.909l0.812,0.014
	c-0.047,2.555,1.93,6.214,5.039,9.32c3.182,3.182,6.887,5.146,9.457,5.034l0.037,0.811C16.004,18.674,15.914,18.676,15.83,18.676z"
	/>
<polygon fill="#3B97D3" points="5.18,9.324 5.457,12.519 2.555,11.165 "/>
<polygon fill="#3B97D3" points="16.207,3.094 19.447,2.733 18.141,5.72 "/>
<path fill="#3B97D3" d="M17.48,3.855l-1.297,1.017c0.07,0.186,0.115,0.381,0.148,0.581l1.459-1.145L17.48,3.855z"/>
<path fill="#3B97D3" d="M16.359,5.022c0.268,0.394,0.336,0.814,0.15,0.942c-0.184,0.126-0.553-0.09-0.82-0.484
	c-0.27-0.391-0.338-0.815-0.152-0.94C15.721,4.412,16.088,4.629,16.359,5.022z"/>
</svg>
