<?xml version="1.0" encoding="utf-8"?>
<!-- Generator: Adobe Illustrator 15.0.2, SVG Export Plug-In  -->
<!DOCTYPE svg PUBLIC "-//W3C//DTD SVG 1.1//EN" "http://www.w3.org/Graphics/SVG/1.1/DTD/svg11.dtd" [
	<!ENTITY ns_flows "http://ns.adobe.com/Flows/1.0/">
]>
<svg version="1.1"
	 xmlns="http://www.w3.org/2000/svg" xmlns:xlink="http://www.w3.org/1999/xlink" xmlns:a="http://ns.adobe.com/AdobeSVGViewerExtensions/3.0/"
	 x="0px" y="0px" width="34px" height="25px" viewBox="-7.776 -2.586 34 25"
	 overflow="visible" enable-background="new -7.776 -2.586 34 25" xml:space="preserve">
<defs>
</defs>
<path fill="#2C3E50" d="M4.172,12.111c-0.339,0-0.663-0.159-0.869-0.456c-0.338-0.484-0.206-1.14,0.273-1.468
	c1.389-0.959,2.868-1.758,4.312-2.532l0.268-0.142c1.479-0.805,2.996-1.586,4.508-2.325c0.312-0.151,0.615-0.309,0.928-0.473
	c1.131-0.584,2.293-1.186,3.562-1.484c0.561-0.136,1.139,0.217,1.267,0.785c0.136,0.565-0.218,1.135-0.787,1.272
	c-1.016,0.235-2.057,0.778-3.074,1.303c-0.324,0.17-0.643,0.336-0.959,0.491c-1.483,0.727-2.987,1.496-4.448,2.289L8.894,9.514
	c-1.398,0.749-2.833,1.52-4.127,2.412C4.584,12.052,4.381,12.111,4.172,12.111z"/>
<path fill="#2C3E50" d="M4.666,14.843c-0.222,0-0.447-0.093-0.602-0.281c-0.122-0.143-0.245-0.283-0.375-0.423
	c-0.345-0.372-0.73-0.71-1.146-1.07c-0.657-0.58-1.339-1.175-1.875-1.953c-0.787-1.131-0.812-2.755-0.057-4.34
	C1.476,4.938,3.06,3.668,4.654,3.537c0.823-0.068,2.262,0.506,3.054,1.235c0.448,0.417,0.669,0.86,0.669,1.315
	c0,0.439-0.344,0.792-0.787,0.792c-0.426,0-1.884-1.69-2.811-1.767c-1-0.082-2.131,1.043-2.743,2.335
	c-0.497,1.068-0.524,2.104-0.067,2.768c0.429,0.615,1.01,1.124,1.62,1.663c0.425,0.371,0.865,0.753,1.259,1.188
	c0.15,0.152,0.286,0.314,0.43,0.473c0.276,0.334,0.235,0.833-0.104,1.118C5.032,14.782,4.848,14.843,4.666,14.843z"/>
<path fill="#2C3E50" d="M6.11,19.495c-0.325,0-0.644-0.08-0.951-0.243c-1.394-0.74-1.814-2.666-2.062-3.817l-0.022-0.077
	c-0.087-0.424-0.169-0.874-0.231-1.338c-0.109-0.75,0.379-1.457,1.09-1.567c0.722-0.109,1.376,0.41,1.48,1.165
	c0.059,0.396,0.118,0.759,0.2,1.114l0.014,0.082c0.172,0.749,0.319,1.289,0.469,1.623c0.101-0.175,0.223-0.429,0.386-0.786
	c0.29-0.695,1.063-1,1.72-0.688c0.652,0.316,0.94,1.134,0.642,1.828c-0.479,1.118-1.063,2.2-2.06,2.58
	C6.562,19.454,6.332,19.495,6.11,19.495z"/>
<path fill="#3B97D3" d="M3.449,15.947c-0.431,0-0.859-0.029-1.28-0.097c-1.489-0.24-1.946-1.113-2.087-1.609
	c-0.435-1.509,0.973-2.735,1.443-3.139c0.303-0.271,0.534-0.45,0.765-0.615c0-0.034,0-0.067,0-0.103
	c-0.022-0.375-0.036-0.756-0.064-1.131c-0.274-4.782,0.97-7.764,3.712-8.875c3.915-1.582,8.352,2.127,10.105,5.132
	c1.119,1.896,0.894,3.442,0.514,4.404c-1.109,2.79-4.781,4.143-7.441,4.92l-0.259,0.075C7.252,15.381,5.323,15.947,3.449,15.947z
	 M7.903,3.17c-0.272,0-0.536,0.045-0.779,0.142C5.449,3.992,5.255,6.816,5.391,9.07c0.022,0.387,0.041,0.778,0.059,1.165
	c0.036,0.781,0.073,1.537,0.145,2.271c0.814-0.177,1.63-0.417,2.371-0.634l0.263-0.077c4.109-1.199,5.142-2.428,5.387-3.055
	c0.118-0.285,0.209-0.764-0.299-1.631C12.278,5.343,9.799,3.17,7.903,3.17z"/>
<path fill="#2C3E50" d="M9.4,17.471c-0.516,0-1.06-0.065-1.621-0.182c-0.452-0.1-0.764-0.503-0.764-0.949
	c-0.277-0.278-0.358-0.704-0.189-1.082c0.186-0.404,0.361-0.821,0.529-1.222c0.52-1.229,0.937-2.199,1.461-2.742
	c1.091-1.114,2.181-1.025,2.739-0.874c1.035,0.281,1.9,1.242,2.199,2.448c0.312,1.262-0.056,2.526-0.969,3.383
	C11.925,17.053,10.754,17.471,9.4,17.471z M8.843,15.494c0.778,0.077,1.879,0.03,2.617-0.66c0.553-0.516,0.493-1.159,0.411-1.496
	c-0.126-0.509-0.476-0.951-0.828-1.043c-0.249-0.068-0.534,0.049-0.838,0.357c-0.271,0.281-0.709,1.315-1.063,2.144
	C9.048,15.026,8.947,15.258,8.843,15.494z"/>
</svg>
