<?xml version="1.0" encoding="utf-8"?>
<!-- Generator: Adobe Illustrator 15.0.2, SVG Export Plug-In  -->
<!DOCTYPE svg PUBLIC "-//W3C//DTD SVG 1.1//EN" "http://www.w3.org/Graphics/SVG/1.1/DTD/svg11.dtd" [
	<!ENTITY ns_flows "http://ns.adobe.com/Flows/1.0/">
]>
<svg version="1.1"
	 xmlns="http://www.w3.org/2000/svg" xmlns:xlink="http://www.w3.org/1999/xlink" xmlns:a="http://ns.adobe.com/AdobeSVGViewerExtensions/3.0/"
	 x="0px" y="0px" width="23px" height="25px" viewBox="-4.148 -1.458 23 25"
	 overflow="visible" enable-background="new -4.148 -1.458 23 25" xml:space="preserve">
<defs>
</defs>
<path fill="#35495E" d="M8.887,21.712H8.462v-8.233h2.354l0.059,0.117c0.316,0.641,0.954,1.038,1.667,1.038
	c1.025,0,1.86-0.834,1.86-1.861c0-1.025-0.835-1.861-1.86-1.861c-0.713,0-1.351,0.398-1.667,1.039l-0.059,0.119H8.462V3.967
	l0.09-0.063c0.51-0.36,0.813-0.944,0.813-1.562c0-1.057-0.858-1.916-1.915-1.916S5.534,1.285,5.534,2.341
	c0,0.619,0.305,1.203,0.814,1.562l0.091,0.063v5.571H4.012L3.953,9.419c-0.316-0.64-0.954-1.038-1.667-1.038
	c-1.025,0-1.86,0.835-1.86,1.861c0,1.027,0.835,1.861,1.86,1.861c0.713,0,1.351-0.397,1.667-1.038l0.059-0.118h2.428v10.765H6.014
	v-10.34H4.272c-0.406,0.717-1.155,1.156-1.986,1.156C1.025,12.528,0,11.503,0,10.242c0-1.26,1.025-2.287,2.286-2.287
	c0.831,0,1.58,0.44,1.986,1.157h1.741V4.186C5.445,3.742,5.108,3.061,5.108,2.341C5.108,1.05,6.159,0,7.45,0s2.342,1.05,2.342,2.341
	c0,0.719-0.337,1.4-0.905,1.844v7.458h1.668c0.406-0.717,1.155-1.157,1.986-1.157c1.261,0,2.286,1.025,2.286,2.286
	c0,1.261-1.025,2.287-2.286,2.287c-0.831,0-1.58-0.439-1.986-1.156H8.887V21.712z"/>
</svg>
