<?xml version="1.0" encoding="utf-8"?>
<!-- Generator: Adobe Illustrator 15.0.2, SVG Export Plug-In  -->
<!DOCTYPE svg PUBLIC "-//W3C//DTD SVG 1.1//EN" "http://www.w3.org/Graphics/SVG/1.1/DTD/svg11.dtd" [
	<!ENTITY ns_flows "http://ns.adobe.com/Flows/1.0/">
]>
<svg version="1.1"
	 xmlns="http://www.w3.org/2000/svg" xmlns:xlink="http://www.w3.org/1999/xlink" xmlns:a="http://ns.adobe.com/AdobeSVGViewerExtensions/3.0/"
	 x="0px" y="0px" width="30px" height="25px" viewBox="-6.891 -1.138 30 25"
	 overflow="visible" enable-background="new -6.891 -1.138 30 25" xml:space="preserve">
<defs>
</defs>
<path fill="#2C3E50" d="M15.406,4.311l-0.005-0.044c-0.126-0.688-0.49-1.313-1.027-1.762s-1.219-0.694-1.918-0.694h-1.103V1.698
	c0-0.454-0.176-0.88-0.496-1.201C10.537,0.177,10.11,0,9.656,0H6.563C6.109,0,5.683,0.177,5.362,0.497
	c-0.32,0.321-0.496,0.747-0.496,1.201v0.112H3.764c-0.699,0-1.381,0.246-1.918,0.694C1.31,2.953,0.944,3.579,0.816,4.283
	L0.004,15.669c-0.033,0.469,0.131,0.935,0.451,1.279c0.319,0.343,0.772,0.54,1.242,0.54h12.825c0.469,0,0.922-0.197,1.242-0.54
	c0.32-0.345,0.483-0.811,0.451-1.278L15.406,4.311z M5.669,1.698c0-0.238,0.094-0.463,0.262-0.632
	C6.1,0.897,6.324,0.804,6.563,0.804h3.093c0.239,0,0.464,0.094,0.633,0.262c0.168,0.17,0.262,0.395,0.262,0.633v0.112H5.669V1.698z"
	/>
<path fill="#FFFFFF" d="M3.846,12.129c-0.856,0-1.553,0.697-1.553,1.554c0,0.855,0.696,1.553,1.553,1.553s1.554-0.697,1.554-1.553
	C5.399,12.826,4.702,12.129,3.846,12.129"/>
<path fill="#FFFFFF" d="M12.374,12.129c-0.856,0-1.553,0.697-1.553,1.554c0,0.855,0.696,1.553,1.553,1.553s1.554-0.697,1.554-1.553
	C13.928,12.826,13.23,12.129,12.374,12.129"/>
<path fill="#3B97D3" d="M4.119,10.49h7.982c0.391,0,0.768-0.164,1.034-0.45c0.266-0.286,0.402-0.675,0.375-1.069l-0.248-2.833
	c-0.103-0.558-0.397-1.064-0.832-1.426c-0.435-0.363-0.986-0.562-1.553-0.562H5.342c-0.567,0-1.118,0.199-1.553,0.562
	C3.354,5.074,3.059,5.58,2.955,6.152L2.709,8.978c-0.027,0.389,0.11,0.776,0.376,1.062C3.352,10.326,3.729,10.49,4.119,10.49"/>
<polygon fill="#3B97D3" points="12.954,19.572 13.402,20.281 2.817,20.281 3.266,19.572 2.586,19.143 0.91,21.794 1.589,22.225 
	2.31,21.085 13.911,21.085 14.632,22.225 15.31,21.794 13.634,19.143 "/>
</svg>
