<?xml version="1.0" encoding="utf-8"?>
<!-- Generator: Adobe Illustrator 15.0.2, SVG Export Plug-In  -->
<!DOCTYPE svg PUBLIC "-//W3C//DTD SVG 1.1//EN" "http://www.w3.org/Graphics/SVG/1.1/DTD/svg11.dtd" [
	<!ENTITY ns_flows "http://ns.adobe.com/Flows/1.0/">
]>
<svg version="1.1"
	 xmlns="http://www.w3.org/2000/svg" xmlns:xlink="http://www.w3.org/1999/xlink" xmlns:a="http://ns.adobe.com/AdobeSVGViewerExtensions/3.0/"
	 x="0px" y="0px" width="30px" height="25px" viewBox="-7.307 -1.401 30 25"
	 overflow="visible" enable-background="new -7.307 -1.401 30 25" xml:space="preserve">
<defs>
</defs>
<path fill="#35495E" d="M8.079,15.706l-0.82-1.062V17.3c0,0.452,0.367,0.818,0.818,0.818c0.452,0,0.818-0.366,0.818-0.818v-2.652
	L8.079,15.706z"/>
<path fill="#35495E" d="M8.079,16.196c-0.154,0-0.298-0.071-0.391-0.19l-2.938-3.804c-0.057-0.074-0.092-0.164-0.1-0.258
	L3.997,4.337c-0.012-0.14,0.036-0.278,0.132-0.38L7.72,0.155C7.812,0.056,7.942,0,8.079,0l0,0c0.134,0,0.263,0.056,0.355,0.155
	l3.592,3.802c0.096,0.102,0.144,0.24,0.132,0.38l-0.654,7.606c-0.01,0.095-0.043,0.184-0.102,0.258l-2.936,3.804
	C8.374,16.125,8.229,16.196,8.079,16.196z M5.618,11.716l2.461,3.187l2.458-3.187l0.623-7.244L8.079,1.207L4.994,4.472L5.618,11.716
	z"/>
<polygon fill="#35495E" points="15.336,16.044 8.079,18.337 0.656,16.044 0.656,14.79 8.132,16.755 15.336,14.79 "/>
<polygon fill="#35495E" points="0.654,14.79 1.965,15.964 0,17.794 "/>
<polygon fill="#35495E" points="15.343,14.79 14.032,15.964 15.997,17.794 "/>
<polygon fill="#35495E" points="7.259,15.99 5.13,14.189 3.685,14.871 2.62,21.038 4.53,16.345 7.287,17.026 "/>
<polygon fill="#35495E" points="8.868,15.99 10.998,14.189 12.443,14.871 13.508,21.038 11.598,16.345 8.842,17.026 "/>
<path fill="#3B97D3" d="M6.954,10.331l-0.001-0.263c0.237-0.001,0.399-0.055,0.497-0.165c0.193-0.221,0.141-0.674,0.083-1.154
	c-0.067-0.562-0.138-1.144,0.15-1.558C7.922,6.845,8.263,6.654,8.592,6.47c0.521-0.292,0.934-0.522,0.872-1.278l0.263-0.021
	c0.076,0.925-0.474,1.231-1.006,1.53C8.418,6.87,8.104,7.045,7.899,7.341C7.67,7.672,7.733,8.204,7.796,8.717
	c0.064,0.541,0.125,1.051-0.147,1.36C7.497,10.247,7.271,10.331,6.954,10.331z"/>
</svg>
