<?xml version="1.0" encoding="iso-8859-1"?>
<!-- Generator: Adobe Illustrator 19.1.0, SVG Export Plug-In . SVG Version: 6.00 Build 0)  -->
<svg version="1.1" id="Layer_1" xmlns="http://www.w3.org/2000/svg" xmlns:xlink="http://www.w3.org/1999/xlink" x="0px" y="0px"
	 viewBox="0 0 40 40" style="enable-background:new 0 0 40 40;" xml:space="preserve">
<g>
	<g>
		<path style="fill:#35495E;" d="M21.894,25.409l-0.322-0.563c1.89-1.078,4.291-3.798,3.441-6.212
			c-0.733-2.083-3.523-3.471-5.369-4.389l-0.212-0.105c-1.457-0.723-2.963-1.47-4.106-2.683c-1.271-1.349-1.46-3.045-1.643-4.685
			l-0.053-0.464l0.645-0.075l0.053,0.467c0.179,1.605,0.348,3.12,1.471,4.312c1.063,1.128,2.517,1.85,3.922,2.547l0.213,0.106
			c1.94,0.965,4.872,2.423,5.692,4.754C26.608,21.211,24.035,24.188,21.894,25.409z"/>
	</g>
	<g>
		<path style="fill:#35495E;" d="M23.761,33.752c-0.19-2.817-1.77-5.105-4.974-7.2c-0.405-0.264-0.841-0.524-1.286-0.79
			c-1.815-1.082-3.872-2.309-4.657-4.374c-1.29-3.396,1.768-5.505,3.595-6.764l0.369,0.534c-2.354,1.623-4.381,3.303-3.356,6
			c0.704,1.854,2.574,2.969,4.383,4.048c0.454,0.27,0.898,0.535,1.309,0.804c3.388,2.215,5.062,4.662,5.267,7.699L23.761,33.752z"/>
	</g>
	<g>
		<path style="fill:#35495E;" d="M14.272,33.777l-0.642-0.094l0.07-0.505c0.242-1.803,0.493-3.667,3.013-5.868l0.427,0.488
			c-2.337,2.041-2.561,3.704-2.797,5.466L14.272,33.777z"/>
	</g>
	<g>
		<path style="fill:#35495E;" d="M21.322,12.69l-0.427-0.488c2.337-2.041,2.561-3.704,2.797-5.466l0.071-0.513l0.642,0.094
			l-0.07,0.505C24.093,8.625,23.843,10.49,21.322,12.69z"/>
	</g>
	<g>
		<rect x="14.136" y="7.478" style="fill:#35495E;" width="9.647" height="0.649"/>
	</g>
	<g>
		<rect x="14.927" y="9.905" style="fill:#35495E;" width="8.186" height="0.649"/>
	</g>
	<g>
		<rect x="13.647" y="17.357" style="fill:#35495E;" width="11.252" height="0.649"/>
	</g>
	<g>
		<rect x="12.858" y="19.784" style="fill:#35495E;" width="12.624" height="0.649"/>
	</g>
	<g>
		<rect x="13.647" y="22.119" style="fill:#35495E;" width="10.872" height="0.649"/>
	</g>
	<g>
		<rect x="14.927" y="29.595" style="fill:#35495E;" width="7.888" height="0.649"/>
	</g>
	<g>
		<rect x="13.951" y="32.201" style="fill:#35495E;" width="9.832" height="0.649"/>
	</g>
</g>
</svg>
