<?xml version="1.0" encoding="iso-8859-1"?>
<!-- Generator: Adobe Illustrator 19.1.0, SVG Export Plug-In . SVG Version: 6.00 Build 0)  -->
<svg version="1.1" id="Layer_1" xmlns="http://www.w3.org/2000/svg" xmlns:xlink="http://www.w3.org/1999/xlink" x="0px" y="0px"
	 viewBox="0 0 40 40" style="enable-background:new 0 0 40 40;" xml:space="preserve">
<g>
	<g>
		<path style="fill:#35495E;" d="M19.666,36.06c-8.854,0-16.059-7.205-16.059-16.06S10.812,3.94,19.666,3.94
			c8.855,0,16.06,7.205,16.06,16.06S28.522,36.06,19.666,36.06z M19.666,4.641c-8.469,0-15.359,6.89-15.359,15.359
			s6.891,15.359,15.359,15.359c8.47,0,15.36-6.89,15.36-15.359S28.136,4.641,19.666,4.641z"/>
	</g>
	<path style="fill:#35495E;" d="M26.866,27.368l-0.427,0.257l-1.236,0.773l-0.728,0.547c-0.54,0.264-1.106,0.473-1.691,0.653v-0.735
		l-0.206-1.699c0,0-0.102-0.979-0.257-1.236c-0.155-0.257-0.514-0.618-0.875-0.773C21.086,25,20.829,25,20.623,24.743
		c-0.206-0.257-0.361-0.722-0.618-1.134c-0.257-0.412-0.568-0.824-0.568-1.03s0-2.317,0-2.317l0.257-1.958l0.567-0.412l0.669-0.773
		l0.465-0.153l1.597,0.31h1.134l0.463,0.979l1.081,0.875l0.669,1.081l0.875,0.31h0.979l0.669,0.824l0.412,0.875l0.155,0.618v1.03
		l-0.105,0.608C28.666,25.577,27.838,26.544,26.866,27.368z"/>
	<path style="fill:#35495E;" d="M22.887,9.603l-1.134,0.618l-0.412,1.185l-0.669,0.618h-2.215l-1.03,0.412l-0.051,0.824
		l-0.412,0.669l-0.102,0.722l0.206,0.618l0.257,0.618c0,0,0.618,0.722,0,1.236c0,0-0.773,0-0.926-0.257
		c-0.153-0.257-1.289-0.979-1.495-1.185c-0.206-0.206-0.875-0.412-0.875-0.412l-0.824-0.31l-0.773-0.051l0.051-1.081l-0.051-0.928
		l-0.31-0.669l-0.875-0.669l-0.051-0.722l0.105-0.4c2.086-2.075,4.96-3.358,8.134-3.358c1.791,0,3.465,0.443,4.978,1.172
		l-0.035,0.27C24.38,8.522,22.887,9.603,22.887,9.603z"/>
</g>
</svg>
