<?xml version="1.0" encoding="iso-8859-1"?>
<!-- Generator: Adobe Illustrator 19.1.0, SVG Export Plug-In . SVG Version: 6.00 Build 0)  -->
<svg version="1.1" id="Layer_1" xmlns="http://www.w3.org/2000/svg" xmlns:xlink="http://www.w3.org/1999/xlink" x="0px" y="0px"
	 viewBox="0 0 40 40" style="enable-background:new 0 0 40 40;" xml:space="preserve">
<g>
	<g>
		<path style="fill:#35495E;" d="M33.185,22.184l-0.548-0.492c2.495-2.773,3.608-5.394,3.608-8.497c0-4.607-3.748-8.354-8.354-8.354
			c-3.409,0-6.252,2.811-7.557,5.597L20,11.147l-0.333-0.71c-1.309-2.786-4.153-5.597-7.559-5.597c-4.606,0-8.354,3.747-8.354,8.354
			c0,3.18,1.046,5.796,3.391,8.484l-0.555,0.484c-2.47-2.831-3.572-5.597-3.572-8.967c0-5.012,4.078-9.09,9.09-9.09
			c3.457,0,6.365,2.6,7.892,5.367c1.524-2.767,4.431-5.367,7.889-5.367c5.014,0,9.092,4.078,9.092,9.09
			C36.981,16.493,35.81,19.266,33.185,22.184z"/>
	</g>
	<g>
		<path style="fill:#35495E;" d="M20.008,35.895l-0.31-0.445c-2.337-3.36-4.993-5.803-7.737-8.214l0.486-0.553
			c2.554,2.244,5.233,4.7,7.546,7.91c2.226-3.238,4.842-5.681,7.34-7.909l0.49,0.549c-2.574,2.296-5.275,4.822-7.516,8.21
			L20.008,35.895z"/>
	</g>
	<g>
		<path style="fill:#35495E;" d="M19.8,31.481c-0.001,0-0.001,0-0.002,0c-0.165-0.001-0.31-0.112-0.353-0.272l-3.715-13.721
			l-2.875,7.813c-0.036,0.097-0.111,0.174-0.206,0.213c-0.094,0.039-0.202,0.037-0.296-0.007l-2.594-1.219l-1.156,1.147
			c-0.069,0.068-0.162,0.107-0.259,0.107H5.664c-0.203,0-0.368-0.165-0.368-0.368c0-0.203,0.165-0.368,0.368-0.368h2.527
			l1.231-1.222c0.111-0.109,0.277-0.136,0.416-0.072l2.464,1.158l3.136-8.52c0.055-0.15,0.178-0.25,0.361-0.24
			c0.16,0.007,0.297,0.117,0.338,0.271l3.672,13.558l3.357-11.77c0.04-0.139,0.156-0.241,0.299-0.263
			c0.142-0.021,0.285,0.043,0.363,0.163l4.504,6.937h5.454c0.203,0,0.368,0.165,0.368,0.368c0,0.203-0.165,0.368-0.368,0.368h-5.654
			c-0.124,0-0.241-0.063-0.308-0.167l-4.172-6.426l-3.498,12.265C20.109,31.372,19.964,31.481,19.8,31.481z"/>
	</g>
</g>
</svg>
