<?xml version="1.0" encoding="iso-8859-1"?>
<!-- Generator: Adobe Illustrator 19.1.0, SVG Export Plug-In . SVG Version: 6.00 Build 0)  -->
<svg version="1.1" id="Layer_1" xmlns="http://www.w3.org/2000/svg" xmlns:xlink="http://www.w3.org/1999/xlink" x="0px" y="0px"
	 viewBox="0 0 40 40" style="enable-background:new 0 0 40 40;" xml:space="preserve">
<g>
	<g>
		<path style="fill:#35495E;" d="M20.465,35.069c-2.749,0-4.903-6.619-4.903-15.069s2.154-15.069,4.903-15.069
			S25.368,11.55,25.368,20S23.214,35.069,20.465,35.069z M20.465,5.476c-2.104,0-4.358,5.836-4.358,14.524
			s2.254,14.524,4.358,14.524S24.822,28.688,24.822,20S22.569,5.476,20.465,5.476z"/>
	</g>
	<g>
		<path style="fill:#35495E;" d="M11.445,31.228c-0.691,0-1.248-0.185-1.636-0.573c-1.944-1.944,1.214-8.147,7.189-14.122
			C22.972,10.558,29.177,7.4,31.12,9.345c1.944,1.944-1.214,8.147-7.188,14.122l0,0C19.149,28.25,14.219,31.228,11.445,31.228z
			 M29.482,9.315c-2.388,0-7.104,2.608-12.099,7.604c-6.143,6.143-8.677,11.863-7.189,13.351c1.489,1.489,7.208-1.045,13.351-7.188
			c6.143-6.143,8.676-11.863,7.188-13.351C30.457,9.453,30.031,9.315,29.482,9.315z"/>
	</g>
	<g>
		<path style="fill:#35495E;" d="M29.484,31.228c-2.774,0-7.703-2.977-12.486-7.761l0,0l0,0c-5.975-5.975-9.132-12.178-7.189-14.122
			c1.944-1.942,8.147,1.213,14.122,7.188c5.974,5.975,9.132,12.178,7.188,14.122C30.732,31.043,30.175,31.228,29.484,31.228z
			 M11.447,9.315c-0.548,0-0.974,0.138-1.252,0.416c-1.488,1.488,1.046,7.208,7.189,13.351l0,0
			c6.142,6.143,11.863,8.676,13.351,7.188c1.488-1.488-1.046-7.208-7.188-13.351C18.551,11.923,13.835,9.315,11.447,9.315z"/>
	</g>
	<g>
		<circle style="fill:#35495E;" cx="31.43" cy="9.686" r="1.084"/>
		<path style="fill:#35495E;" d="M31.43,11.042c-0.747,0-1.355-0.609-1.355-1.356c0-0.748,0.608-1.357,1.355-1.357
			c0.748,0,1.356,0.609,1.356,1.357C32.786,10.433,32.178,11.042,31.43,11.042z M31.43,8.874c-0.447,0-0.81,0.364-0.81,0.812
			c0,0.447,0.364,0.811,0.81,0.811c0.447,0,0.811-0.364,0.811-0.811C32.241,9.238,31.877,8.874,31.43,8.874z"/>
	</g>
	<g>
		<circle style="fill:#35495E;" cx="9.499" cy="30.15" r="1.084"/>
		<path style="fill:#35495E;" d="M9.499,31.506c-0.747,0-1.355-0.608-1.355-1.356c0-0.748,0.608-1.357,1.355-1.357
			c0.748,0,1.356,0.609,1.356,1.357C10.855,30.898,10.247,31.506,9.499,31.506z M9.499,29.339c-0.447,0-0.81,0.364-0.81,0.812
			c0,0.447,0.364,0.811,0.81,0.811c0.447,0,0.811-0.364,0.811-0.811C10.31,29.703,9.946,29.339,9.499,29.339z"/>
	</g>
	<g>
		<circle style="fill:#35495E;" cx="10.583" cy="14.777" r="1.084"/>
		<path style="fill:#35495E;" d="M10.582,16.134c-0.747,0-1.355-0.609-1.355-1.356c0-0.748,0.608-1.356,1.355-1.356
			c0.749,0,1.357,0.609,1.357,1.356C11.939,15.525,11.33,16.134,10.582,16.134z M10.582,13.966c-0.447,0-0.81,0.364-0.81,0.811
			c0,0.447,0.364,0.811,0.81,0.811c0.448,0,0.812-0.364,0.812-0.811C11.394,14.33,11.03,13.966,10.582,13.966z"/>
	</g>
	<g>
		<circle style="fill:#35495E;" cx="30.347" cy="25.433" r="1.084"/>
		<path style="fill:#35495E;" d="M30.346,26.79c-0.747,0-1.355-0.609-1.355-1.356c0-0.748,0.608-1.357,1.355-1.357
			c0.749,0,1.357,0.609,1.357,1.357C31.703,26.181,31.094,26.79,30.346,26.79z M30.346,24.622c-0.447,0-0.81,0.364-0.81,0.812
			c0,0.447,0.363,0.811,0.81,0.811c0.448,0,0.812-0.364,0.812-0.811C31.158,24.986,30.794,24.622,30.346,24.622z"/>
	</g>
	<g>
		<path style="fill:#35495E;" d="M20.465,22.365c-1.304,0-2.365-1.061-2.365-2.365s1.061-2.365,2.365-2.365
			c1.304,0,2.365,1.061,2.365,2.365S21.769,22.365,20.465,22.365z M20.465,18.18c-1.004,0-1.82,0.817-1.82,1.82
			s0.817,1.82,1.82,1.82c1.004,0,1.82-0.817,1.82-1.82S21.469,18.18,20.465,18.18z"/>
	</g>
</g>
</svg>
