<?xml version="1.0" encoding="utf-8"?>
<!-- Generator: Adobe Illustrator 15.0.2, SVG Export Plug-In  -->
<!DOCTYPE svg PUBLIC "-//W3C//DTD SVG 1.1//EN" "http://www.w3.org/Graphics/SVG/1.1/DTD/svg11.dtd" [
	<!ENTITY ns_flows "http://ns.adobe.com/Flows/1.0/">
]>
<svg version="1.1"
	 xmlns="http://www.w3.org/2000/svg" xmlns:xlink="http://www.w3.org/1999/xlink" xmlns:a="http://ns.adobe.com/AdobeSVGViewerExtensions/3.0/"
	 x="0px" y="0px" width="134px" height="33px" viewBox="-3.502 -2.334 134 33"
	 overflow="visible" enable-background="new -3.502 -2.334 134 33" xml:space="preserve">
<defs>
</defs>
<g>
	<g>
		<path fill="#3B97D3" d="M25.53,1.826c0,0.8-0.58,1.38-1.34,1.38c-0.761,0-1.341-0.58-1.341-1.38c0-0.82,0.58-1.4,1.341-1.4
			C24.95,0.426,25.53,1.006,25.53,1.826z M23.049,15.509V4.867h2.28v10.642H23.049z"/>
		<path fill="#3B97D3" d="M35.63,5.847l-0.84,1.7c-0.94-0.58-2.12-0.94-3.061-0.94c-0.9,0-1.561,0.3-1.561,1.06
			c0,1.96,5.661,0.9,5.642,4.761c0,2.18-1.94,3.161-4.081,3.161c-1.561,0-3.221-0.52-4.281-1.48l0.82-1.64
			c0.92,0.82,2.4,1.32,3.561,1.32c0.98,0,1.74-0.34,1.74-1.141c0-2.18-5.601-0.96-5.581-4.801c0-2.161,1.881-3.081,3.921-3.081
			C33.25,4.767,34.67,5.167,35.63,5.847z"/>
		<path fill="#3B97D3" d="M44.51,14.209c-0.761,0.94-1.98,1.4-3.521,1.4c-2.3,0-3.74-1.42-3.74-3.301c0-1.94,1.46-3.181,4.021-3.201
			h3.22v-0.32c0-1.34-0.86-2.14-2.54-2.14c-1.021,0-2.081,0.36-3.141,1.08l-0.94-1.6c1.48-0.88,2.561-1.34,4.581-1.34
			c2.74,0,4.28,1.4,4.3,3.741l0.02,6.981h-2.26V14.209z M44.489,11.769v-0.98h-2.88c-1.5,0-2.2,0.4-2.2,1.42
			c0,0.96,0.78,1.581,2.061,1.581C43.109,13.789,44.369,12.929,44.489,11.769z"/>
		<path fill="#FFFFFF" d="M59.13,10.848h-8.602c0.279,2.061,1.78,3.361,3.82,3.361c1.301,0,2.44-0.46,3.261-1.32l0.86,0.92
			c-1,1.12-2.48,1.76-4.241,1.76c-3.101,0-5.241-2.181-5.241-5.321s2.161-5.321,5.222-5.321C57.609,4.907,59.29,7.268,59.13,10.848z
			 M57.729,9.568c-0.1-2.021-1.46-3.301-3.521-3.301c-2.001,0-3.441,1.3-3.681,3.301H57.729z"/>
		<path fill="#FFFFFF" d="M67.43,4.967h1.72l-3.521,5.121l3.781,5.421h-1.82l-3.001-4.301l-3.101,4.301h-1.761l3.841-5.421
			l-3.581-5.121h1.801l2.801,4.001L67.43,4.967z"/>
		<path fill="#FFFFFF" d="M82.57,10.268c0,3.121-2.04,5.301-5.021,5.301c-1.881,0-3.321-0.86-4.102-2.32v6.141h-1.561V4.967h1.561
			v2.281c0.78-1.48,2.221-2.34,4.062-2.34C80.49,4.907,82.57,7.107,82.57,10.268z M80.99,10.228c0-2.26-1.561-3.921-3.761-3.921
			c-2.221,0-3.781,1.641-3.781,3.921c0,2.301,1.561,3.921,3.781,3.921C79.43,14.149,80.99,12.509,80.99,10.228z"/>
		<path fill="#FFFFFF" d="M85.407,15.509V0.666h1.561v14.843H85.407z"/>
		<path fill="#FFFFFF" d="M100.489,10.228c0,3.161-2.221,5.341-5.341,5.341c-3.121,0-5.342-2.181-5.342-5.341
			c0-3.141,2.221-5.301,5.342-5.301C98.269,4.927,100.489,7.087,100.489,10.228z M91.367,10.248c0,2.321,1.58,3.921,3.781,3.921
			c2.2,0,3.78-1.6,3.78-3.921c0-2.3-1.58-3.901-3.78-3.901C92.947,6.347,91.367,7.948,91.367,10.248z"/>
		<path fill="#FFFFFF" d="M104.788,7.308c0.7-1.541,2-2.38,3.78-2.4v1.58c-2.22-0.04-3.601,1.34-3.78,3.421v5.601h-1.561V4.967
			h1.561V7.308z"/>
		<path fill="#FFFFFF" d="M119.749,10.848h-8.602c0.279,2.061,1.78,3.361,3.82,3.361c1.301,0,2.44-0.46,3.261-1.32l0.86,0.92
			c-1,1.12-2.48,1.76-4.241,1.76c-3.101,0-5.241-2.181-5.241-5.321s2.161-5.321,5.222-5.321
			C118.229,4.907,119.909,7.268,119.749,10.848z M118.349,9.568c-0.1-2.021-1.46-3.301-3.521-3.301c-2.001,0-3.441,1.3-3.681,3.301
			H118.349z"/>
		<path fill="#FFFFFF" d="M123.987,7.308c0.7-1.541,2-2.38,3.78-2.4v1.58c-2.22-0.04-3.601,1.34-3.78,3.421v5.601h-1.561V4.967
			h1.561V7.308z"/>
	</g>
</g>
<g>
	<g>
		<path fill="#3B97D3" d="M82.767,21.254l-0.408,0.899c-0.756-0.503-1.643-0.708-2.314-0.708c-1.079,0-1.787,0.408-1.787,1.115
			c0,2.159,4.726,1.032,4.714,4.078c0,1.403-1.235,2.303-3.035,2.303c-1.223,0-2.422-0.528-3.214-1.284l0.432-0.863
			c0.779,0.755,1.847,1.188,2.795,1.188c1.211,0,1.967-0.492,1.967-1.295c0.012-2.207-4.714-1.031-4.714-4.042
			c0-1.319,1.164-2.17,2.902-2.17C81.075,20.475,82.07,20.786,82.767,21.254z"/>
		<path fill="#3B97D3" d="M91.598,21.71l-0.576,0.731c-0.647-0.66-1.559-1.056-2.482-1.056c-1.895,0-3.418,1.463-3.418,3.311
			c0,1.835,1.523,3.31,3.418,3.31c0.924,0,1.823-0.384,2.482-1.007l0.588,0.659c-0.827,0.78-1.955,1.295-3.118,1.295
			c-2.423,0-4.342-1.883-4.342-4.257c0-2.351,1.943-4.21,4.378-4.21C89.679,20.486,90.794,20.954,91.598,21.71z"/>
		<path fill="#3B97D3" d="M93.342,28.906V20.51h0.959v8.396H93.342z"/>
		<path fill="#FFFFFF" d="M100.239,20.51c2.447,0,4.318,1.811,4.318,4.198s-1.884,4.198-4.354,4.198h-3.358V20.51H100.239z
			 M97.805,27.994h2.447c1.871,0,3.334-1.403,3.334-3.274c0-1.883-1.487-3.286-3.37-3.286h-2.411V27.994z"/>
		<path fill="#FFFFFF" d="M106.841,26.783l-0.936,2.123h-1.02l3.766-8.396h0.996l3.754,8.396h-1.044l-0.936-2.123H106.841z
			 M109.119,21.602l-1.87,4.258h3.766L109.119,21.602z"/>
		<path fill="#FFFFFF" d="M116.501,21.434v7.472h-0.96v-7.472h-2.734V20.51h6.44v0.924H116.501z"/>
		<path fill="#FFFFFF" d="M120.594,26.783l-0.936,2.123h-1.02l3.766-8.396h0.996l3.754,8.396h-1.044l-0.936-2.123H120.594z
			 M122.872,21.602l-1.87,4.258h3.766L122.872,21.602z"/>
	</g>
</g>
<path fill="#3B97D3" d="M9,17.999c-4.962,0-9-4.037-9-9s4.038-9,9-9s9,4.037,9,9S13.962,17.999,9,17.999z M9,1.588
	C4.913,1.588,1.589,4.913,1.589,9S4.913,16.411,9,16.411S16.411,13.086,16.411,9S13.087,1.588,9,1.588z"/>
<path fill="#FFFFFF" d="M7.224,6.994l-1.947,5.73l5.729-1.947l1.947-5.729L7.224,6.994z M9.114,9.803
	c-0.507,0-0.917-0.411-0.917-0.917c0-0.506,0.41-0.917,0.917-0.917c0.506,0,0.917,0.411,0.917,0.917
	C10.031,9.392,9.62,9.803,9.114,9.803z"/>
</svg>
