<?xml version="1.0" encoding="utf-8"?>
<!-- Generator: Adobe Illustrator 15.0.2, SVG Export Plug-In  -->
<!DOCTYPE svg PUBLIC "-//W3C//DTD SVG 1.1//EN" "http://www.w3.org/Graphics/SVG/1.1/DTD/svg11.dtd" [
	<!ENTITY ns_flows "http://ns.adobe.com/Flows/1.0/">
]>
<svg version="1.1"
	 xmlns="http://www.w3.org/2000/svg" xmlns:xlink="http://www.w3.org/1999/xlink" xmlns:a="http://ns.adobe.com/AdobeSVGViewerExtensions/3.0/"
	 x="0px" y="0px" width="162px" height="24px" viewBox="-3.909 -3.58 162 24"
	 overflow="visible" enable-background="new -3.909 -3.58 162 24" xml:space="preserve">
<defs>
</defs>
<path fill="#FFFFFF" d="M9.075,1.873l-0.612,1.35C7.328,2.467,5.996,2.161,4.987,2.161c-1.62,0-2.683,0.612-2.683,1.674
	c0,3.241,7.094,1.548,7.076,6.122c0,2.106-1.854,3.457-4.555,3.457c-1.837,0-3.637-0.792-4.826-1.927l0.648-1.296
	c1.17,1.134,2.773,1.783,4.195,1.783c1.819,0,2.953-0.738,2.953-1.945C7.814,6.716,0.72,8.48,0.72,3.961
	c0-1.98,1.747-3.259,4.357-3.259C6.536,0.702,8.03,1.17,9.075,1.873z"/>
<path fill="#FFFFFF" d="M22.323,2.557l-0.864,1.098c-0.972-0.99-2.34-1.584-3.727-1.584c-2.845,0-5.131,2.197-5.131,4.97
	c0,2.755,2.287,4.969,5.131,4.969c1.387,0,2.737-0.576,3.727-1.512l0.882,0.99c-1.242,1.17-2.935,1.945-4.681,1.945
	c-3.637,0-6.518-2.827-6.518-6.392c0-3.529,2.917-6.32,6.572-6.32C19.442,0.72,21.117,1.422,22.323,2.557z"/>
<path fill="#FFFFFF" d="M24.931,13.36V0.756h1.44V13.36H24.931z"/>
<path fill="#3B97D3" d="M35.282,0.756c3.673,0,6.482,2.719,6.482,6.302s-2.827,6.302-6.536,6.302h-5.042V0.756H35.282z
	 M31.627,11.992H35.3c2.809,0,5.005-2.107,5.005-4.916c0-2.827-2.232-4.934-5.059-4.934h-3.619V11.992z"/>
<path fill="#3B97D3" d="M45.18,10.173l-1.404,3.187h-1.53l5.653-12.604h1.495l5.636,12.604h-1.566l-1.405-3.187H45.18z
	 M48.601,2.395l-2.809,6.392h5.654L48.601,2.395z"/>
<path fill="#3B97D3" d="M59.671,2.143V13.36h-1.44V2.143h-4.105V0.756h9.668v1.386H59.671z"/>
<path fill="#3B97D3" d="M65.809,10.173l-1.404,3.187h-1.531l5.654-12.604h1.495l5.636,12.604h-1.566l-1.405-3.187H65.809z
	 M69.229,2.395l-2.809,6.392h5.654L69.229,2.395z"/>
<path fill="#FFFFFF" d="M84.151,2.665v3.403h6.158v1.908h-6.158v3.475h7.094v1.909h-9.219V0.756h9.003v1.908H84.151z"/>
<path fill="#FFFFFF" d="M99.361,3.781h2.269l-3.079,4.664l3.295,4.916h-2.377l-2.287-3.511l-2.449,3.511h-2.305l3.385-4.916
	l-3.151-4.664h2.376l2.143,3.277L99.361,3.781z"/>
<path fill="#FFFFFF" d="M113.762,8.606c0,2.863-1.8,4.826-4.537,4.826c-1.53,0-2.683-0.612-3.385-1.729v5.149h-2.07V3.781h2.07
	v1.657c0.703-1.116,1.855-1.729,3.349-1.729C111.908,3.709,113.762,5.689,113.762,8.606z M111.674,8.535
	c0-1.783-1.207-3.097-2.917-3.097s-2.917,1.296-2.917,3.097c0,1.854,1.207,3.133,2.917,3.133S111.674,10.371,111.674,8.535z"/>
<path fill="#FFFFFF" d="M116.009,13.36V0h2.07v13.36H116.009z"/>
<path fill="#FFFFFF" d="M130.322,8.57c0,2.881-2.035,4.862-4.987,4.862c-2.971,0-5.005-1.981-5.005-4.862
	c0-2.899,2.035-4.861,5.005-4.861C128.287,3.709,130.322,5.671,130.322,8.57z M122.399,8.588c0,1.854,1.207,3.115,2.935,3.115
	c1.71,0,2.917-1.261,2.917-3.115c0-1.836-1.207-3.097-2.917-3.097C123.606,5.492,122.399,6.752,122.399,8.588z"/>
<path fill="#FFFFFF" d="M134.55,5.689c0.648-1.296,1.8-1.98,3.313-1.98v1.98c-1.927-0.108-3.151,1.026-3.313,2.665v5.005h-2.071
	V3.781h2.071V5.689z"/>
<path fill="#FFFFFF" d="M147.998,9.363h-7.238c0.324,1.477,1.458,2.395,2.971,2.395c1.044,0,1.999-0.396,2.701-1.116l1.098,1.17
	c-0.936,1.026-2.305,1.621-3.961,1.621c-2.953,0-4.897-1.963-4.897-4.844c0-2.899,1.999-4.861,4.843-4.879
	C146.881,3.709,148.25,5.906,147.998,9.363z M146.197,7.85c-0.072-1.548-1.098-2.484-2.665-2.484c-1.513,0-2.575,0.954-2.809,2.484
	H146.197z"/>
<path fill="#FFFFFF" d="M152.226,5.689c0.648-1.296,1.8-1.98,3.313-1.98v1.98c-1.927-0.108-3.151,1.026-3.313,2.665v5.005h-2.071
	V3.781h2.071V5.689z"/>
</svg>
