<?xml version="1.0" encoding="iso-8859-1"?>
<!-- Generator: Adobe Illustrator 19.1.0, SVG Export Plug-In . SVG Version: 6.00 Build 0)  -->
<svg version="1.1" id="Layer_1" xmlns="http://www.w3.org/2000/svg" xmlns:xlink="http://www.w3.org/1999/xlink" x="0px" y="0px"
	 viewBox="0 0 133.501 33" style="enable-background:new 0 0 133.501 33;" xml:space="preserve">
<g>
	<g>
		<path style="fill:#3B97D3;" d="M28.716,5.228c0,0.706-0.512,1.218-1.182,1.218c-0.671,0-1.183-0.512-1.183-1.218
			c0-0.723,0.512-1.235,1.183-1.235C28.204,3.993,28.716,4.505,28.716,5.228z M26.528,17.3V7.911h2.012V17.3H26.528z"/>
		<path style="fill:#3B97D3;" d="M37.628,8.776l-0.741,1.5c-0.83-0.512-1.871-0.829-2.7-0.829c-0.794,0-1.377,0.265-1.377,0.935
			c0,1.73,4.995,0.794,4.977,4.201c0,1.924-1.712,2.789-3.601,2.789c-1.377,0-2.842-0.459-3.777-1.306l0.724-1.447
			c0.812,0.723,2.118,1.165,3.141,1.165c0.865,0,1.535-0.3,1.535-1.006c0-1.924-4.941-0.847-4.924-4.236
			c0-1.906,1.659-2.718,3.459-2.718C35.528,7.823,36.781,8.175,37.628,8.776z"/>
		<path style="fill:#3B97D3;" d="M45.462,16.153c-0.671,0.83-1.747,1.236-3.106,1.236c-2.029,0-3.3-1.253-3.3-2.912
			c0-1.712,1.288-2.806,3.547-2.824h2.841V11.37c0-1.182-0.759-1.888-2.241-1.888c-0.9,0-1.836,0.318-2.771,0.953l-0.83-1.412
			c1.306-0.777,2.259-1.183,4.042-1.183c2.417,0,3.776,1.236,3.794,3.3l0.017,6.16h-1.994V16.153z M45.444,14v-0.865h-2.541
			c-1.323,0-1.941,0.353-1.941,1.253c0,0.847,0.688,1.394,1.818,1.394C44.226,15.782,45.338,15.023,45.444,14z"/>
		<path style="fill:#FFFFFF;" d="M58.361,13.188h-7.589c0.246,1.818,1.571,2.965,3.371,2.965c1.148,0,2.153-0.406,2.877-1.165
			l0.759,0.812c-0.882,0.988-2.188,1.553-3.742,1.553c-2.736,0-4.624-1.924-4.624-4.695c0-2.771,1.907-4.694,4.607-4.694
			C57.019,7.946,58.502,10.029,58.361,13.188z M57.125,12.058c-0.088-1.783-1.288-2.912-3.106-2.912
			c-1.765,0-3.036,1.147-3.247,2.912H57.125z"/>
		<path style="fill:#FFFFFF;" d="M65.683,7.999H67.2l-3.106,4.518L67.43,17.3h-1.606l-2.648-3.794L60.441,17.3h-1.554l3.389-4.783
			l-3.159-4.518h1.589l2.471,3.53L65.683,7.999z"/>
		<path style="fill:#FFFFFF;" d="M79.041,12.676c0,2.753-1.8,4.677-4.429,4.677c-1.659,0-2.93-0.759-3.619-2.047v5.418h-1.377V7.999
			h1.377v2.012c0.688-1.306,1.959-2.065,3.583-2.065C77.206,7.946,79.041,9.887,79.041,12.676z M77.647,12.641
			c0-1.994-1.377-3.459-3.318-3.459c-1.959,0-3.336,1.447-3.336,3.459c0,2.03,1.377,3.459,3.336,3.459
			C76.27,16.1,77.647,14.653,77.647,12.641z"/>
		<path style="fill:#FFFFFF;" d="M81.544,17.3V4.204h1.377V17.3H81.544z"/>
		<path style="fill:#FFFFFF;" d="M94.851,12.641c0,2.789-1.959,4.712-4.712,4.712c-2.754,0-4.713-1.924-4.713-4.712
			c0-2.771,1.959-4.677,4.713-4.677C92.891,7.964,94.851,9.87,94.851,12.641z M86.803,12.658c0,2.048,1.394,3.459,3.336,3.459
			c1.941,0,3.335-1.412,3.335-3.459c0-2.029-1.394-3.442-3.335-3.442C88.197,9.217,86.803,10.629,86.803,12.658z"/>
		<path style="fill:#FFFFFF;" d="M98.643,10.064c0.618-1.359,1.765-2.1,3.335-2.118V9.34c-1.958-0.035-3.177,1.183-3.335,3.018V17.3
			h-1.377V7.999h1.377V10.064z"/>
		<path style="fill:#FFFFFF;" d="M111.843,13.188h-7.589c0.246,1.818,1.571,2.965,3.371,2.965c1.148,0,2.153-0.406,2.877-1.165
			l0.759,0.812c-0.882,0.988-2.188,1.553-3.742,1.553c-2.736,0-4.624-1.924-4.624-4.695c0-2.771,1.907-4.694,4.607-4.694
			C110.502,7.946,111.984,10.029,111.843,13.188z M110.607,12.058c-0.088-1.783-1.288-2.912-3.106-2.912
			c-1.765,0-3.036,1.147-3.247,2.912H110.607z"/>
		<path style="fill:#FFFFFF;" d="M115.582,10.064c0.618-1.359,1.765-2.1,3.335-2.118V9.34c-1.958-0.035-3.177,1.183-3.335,3.018
			V17.3h-1.377V7.999h1.377V10.064z"/>
	</g>
</g>
<g>
	<g>
		<path style="fill:#3B97D3;" d="M12.502,20.333c-4.962,0-9-4.037-9-8.999s4.038-9,9-9c4.962,0,9,4.037,9,9
			S17.464,20.333,12.502,20.333z M12.502,3.922c-4.087,0-7.411,3.325-7.411,7.411s3.324,7.411,7.411,7.411
			c4.087,0,7.411-3.325,7.411-7.411S16.589,3.922,12.502,3.922z"/>
	</g>
	<path style="fill:#FFFFFF;" d="M10.726,9.328l-1.947,5.73l5.729-1.947l1.947-5.729L10.726,9.328z M12.616,12.137
		c-0.507,0-0.917-0.411-0.917-0.917c0-0.506,0.41-0.917,0.917-0.917c0.506,0,0.917,0.411,0.917,0.917
		C13.533,11.726,13.122,12.137,12.616,12.137z"/>
</g>
<g>
	<g>
		<linearGradient id="SVGID_1_" gradientUnits="userSpaceOnUse" x1="118.6937" y1="26.5624" x2="131.8653" y2="26.5624">
			<stop  offset="0" style="stop-color:#3498C2"/>
			<stop  offset="1" style="stop-color:#B5DEE1"/>
		</linearGradient>
		<path style="fill:url(#SVGID_1_);" d="M121.015,26.236c0.143-0.001,0.287-0.001,0.43-0.001c0-0.49,0-0.979,0-1.469
			c-0.205,0.008-0.409,0.021-0.614,0.038c0,0.153,0,0.307,0,0.46c0.061-0.007,0.122-0.015,0.183-0.021
			C121.015,25.574,121.015,25.905,121.015,26.236z M120.154,24.204c0.143-0.021,0.287-0.039,0.43-0.052c0-0.481,0-0.963,0-1.444
			c-0.205,0.039-0.41,0.089-0.614,0.153c0,0.147,0,0.293,0,0.44c0.061-0.02,0.123-0.038,0.184-0.056
			C120.154,23.565,120.154,23.885,120.154,24.204z M120.873,28.345c0-0.486,0-0.972,0-1.458c-0.205,0.006-0.409,0.011-0.614,0.014
			c0,0.15,0,0.299,0,0.449c0.061-0.002,0.122-0.005,0.183-0.007c0,0.325,0,0.65,0,0.975
			C120.586,28.329,120.729,28.338,120.873,28.345z M130.126,27.241c0-0.272-0.209-0.487-0.57-0.488
			c-0.361-0.002-0.57,0.203-0.57,0.464c0,0.276,0.201,0.478,0.57,0.49C129.924,27.722,130.126,27.529,130.126,27.241z
			 M129.556,27.434c-0.122-0.003-0.155-0.135-0.155-0.206c0-0.075,0.025-0.189,0.155-0.187c0.13,0.002,0.155,0.117,0.155,0.194
			C129.711,27.305,129.678,27.437,129.556,27.434z M121.61,24.136c0.369,0.005,0.57-0.308,0.57-0.744
			c0-0.411-0.209-0.762-0.57-0.772c-0.361-0.006-0.569,0.342-0.57,0.755C121.04,23.814,121.241,24.132,121.61,24.136z
			 M121.61,23.076c0.13,0.003,0.155,0.185,0.155,0.306c0,0.112-0.033,0.321-0.155,0.319c-0.122-0.001-0.155-0.211-0.155-0.324
			C121.455,23.256,121.48,23.074,121.61,23.076z M119.308,24.379c0-0.436,0-0.872,0-1.308c-0.205,0.094-0.409,0.202-0.614,0.327
			c0,0.125,0,0.251,0,0.376c0.061-0.035,0.122-0.069,0.183-0.102c0,0.279,0,0.557,0,0.836
			C119.021,24.459,119.164,24.417,119.308,24.379z M120.41,25.513c0-0.408-0.209-0.714-0.57-0.662
			c-0.361,0.055-0.57,0.392-0.57,0.757c0,0.387,0.202,0.673,0.57,0.668C120.209,26.27,120.41,25.944,120.41,25.513z M119.84,25.868
			c-0.122,0.007-0.155-0.186-0.155-0.291c0-0.111,0.025-0.283,0.155-0.297c0.13-0.014,0.155,0.157,0.155,0.272
			C119.995,25.659,119.962,25.861,119.84,25.868z M130.339,28.161c-0.361-0.047-0.569,0.151-0.57,0.413
			c0,0.28,0.201,0.503,0.57,0.586c0.369,0.088,0.57-0.064,0.57-0.378C130.909,28.488,130.7,28.209,130.339,28.161z M130.339,28.874
			c-0.122-0.024-0.155-0.166-0.155-0.239c0-0.078,0.025-0.193,0.155-0.173c0.13,0.021,0.155,0.149,0.155,0.229
			C130.494,28.767,130.461,28.899,130.339,28.874z M125.518,24.633c0.369,0.063,0.57-0.152,0.57-0.482
			c0-0.311-0.209-0.615-0.57-0.723c-0.361-0.108-0.57,0.105-0.57,0.457C124.948,24.256,125.149,24.57,125.518,24.633z
			 M125.518,23.79c0.13,0.034,0.155,0.182,0.155,0.276c0,0.088-0.033,0.246-0.155,0.22c-0.122-0.025-0.156-0.202-0.156-0.293
			C125.362,23.896,125.388,23.756,125.518,23.79z M125.731,25.724c0,0.346,0.201,0.609,0.57,0.613c0.369,0.005,0.57-0.223,0.57-0.53
			c0-0.291-0.209-0.542-0.57-0.59C125.939,25.17,125.73,25.396,125.731,25.724z M126.3,25.555c0.13,0.012,0.155,0.146,0.155,0.234
			c0,0.082-0.033,0.234-0.155,0.228c-0.122-0.006-0.155-0.165-0.155-0.251C126.145,25.676,126.17,25.542,126.3,25.555z
			 M131.251,28.377c0,0.113,0,0.227,0,0.34c0.061,0.016,0.123,0.032,0.184,0.05c0,0.251,0,0.502,0,0.753
			c0.143,0.067,0.287,0.143,0.43,0.226c0-0.398,0-0.795,0-1.193C131.661,28.485,131.456,28.427,131.251,28.377z M124.061,24.358
			c0.143,0.023,0.287,0.048,0.43,0.073c0-0.426,0-0.852,0-1.277c-0.205-0.05-0.409-0.098-0.614-0.142c0,0.141,0,0.281,0,0.422
			c0.061,0.009,0.122,0.018,0.183,0.027C124.061,23.76,124.061,24.059,124.061,24.358z M123.568,26.258
			c0.143,0.003,0.287,0.006,0.43,0.009c0-0.443,0-0.885,0-1.328c-0.205-0.017-0.409-0.032-0.614-0.045c0,0.145,0,0.291,0,0.436
			c0.061-0.001,0.123-0.001,0.184-0.001C123.568,25.639,123.568,25.948,123.568,26.258z M122.785,24.183
			c0.143,0.015,0.287,0.032,0.43,0.05c0-0.465,0-0.93,0-1.395c-0.205-0.035-0.41-0.064-0.614-0.086c0,0.151,0,0.302,0,0.453
			c0.061,0.003,0.123,0.006,0.184,0.01C122.785,23.538,122.785,23.861,122.785,24.183z M121.406,28.989
			c-0.361-0.002-0.569,0.304-0.57,0.718c0,0.434,0.201,0.792,0.57,0.798c0.369,0.002,0.57-0.35,0.57-0.786
			C121.976,29.303,121.767,28.991,121.406,28.989z M121.406,30.07c-0.122-0.002-0.155-0.214-0.155-0.327
			c0-0.121,0.025-0.3,0.155-0.299c0.13,0.001,0.155,0.181,0.155,0.302C121.561,29.86,121.528,30.071,121.406,30.07z M127.916,27.09
			c0.061-0.005,0.123-0.01,0.184-0.015c0,0.213,0,0.427,0,0.64c0.143-0.009,0.287-0.016,0.43-0.021c0-0.309,0-0.617,0-0.926
			c-0.205,0.006-0.41,0.013-0.614,0.021C127.916,26.889,127.916,26.99,127.916,27.09z M125.978,27.929c0-0.373,0-0.746,0-1.118
			c-0.205,0.011-0.41,0.022-0.614,0.033c0,0.125,0,0.249,0,0.374c0.061-0.008,0.122-0.016,0.183-0.023c0,0.263,0,0.527,0,0.79
			C125.691,27.967,125.834,27.948,125.978,27.929z M124.87,29.037c0.061-0.018,0.123-0.035,0.184-0.053c0,0.276,0,0.551,0,0.827
			c0.143-0.041,0.287-0.083,0.43-0.125c0-0.39,0-0.78,0-1.171c-0.205,0.043-0.41,0.087-0.614,0.131
			C124.87,28.777,124.87,28.907,124.87,29.037z M125.274,26.296c0-0.398,0-0.796,0-1.194c-0.205-0.021-0.41-0.041-0.614-0.061
			c0,0.133,0,0.265,0,0.398c0.061,0.001,0.123,0.003,0.184,0.004c0,0.281,0,0.562,0,0.843
			C124.987,26.289,125.131,26.293,125.274,26.296z M127.827,26.349c0-0.319,0-0.639,0-0.958c-0.205-0.01-0.41-0.023-0.614-0.037
			c0,0.105,0,0.211,0,0.316c0.061,0.001,0.123,0.001,0.184,0.002c0,0.224,0,0.447,0,0.671
			C127.54,26.345,127.683,26.347,127.827,26.349z M126.64,27.145c0.061-0.007,0.123-0.014,0.184-0.02c0,0.234,0,0.468,0,0.702
			c0.143-0.016,0.287-0.031,0.43-0.045c0-0.333,0-0.665,0-0.998c-0.205,0.009-0.41,0.018-0.614,0.029
			C126.64,26.924,126.64,27.034,126.64,27.145z M126.51,28.32c-0.361,0.055-0.57,0.344-0.57,0.665c0,0.339,0.201,0.534,0.57,0.434
			c0.369-0.099,0.57-0.37,0.57-0.671C127.081,28.462,126.872,28.265,126.51,28.32z M126.51,29.104
			c-0.122,0.029-0.155-0.118-0.155-0.201c0-0.089,0.025-0.227,0.155-0.252c0.13-0.024,0.155,0.1,0.155,0.186
			C126.666,28.918,126.632,29.075,126.51,29.104z M123.594,29.291c0.061-0.016,0.122-0.031,0.183-0.048c0,0.305,0,0.61,0,0.915
			c0.143-0.035,0.287-0.072,0.43-0.11c0-0.435,0-0.871,0-1.306c-0.205,0.041-0.409,0.081-0.614,0.118
			C123.594,29.004,123.594,29.147,123.594,29.291z M124.087,27.293c0.061-0.008,0.123-0.016,0.184-0.024c0,0.294,0,0.589,0,0.883
			c0.143-0.018,0.287-0.036,0.43-0.055c0-0.419,0-0.837,0-1.256c-0.205,0.011-0.409,0.023-0.614,0.035
			C124.087,27.015,124.087,27.154,124.087,27.293z M121.535,27.376c0.061-0.005,0.123-0.011,0.184-0.016c0,0.332,0,0.664,0,0.996
			c0.143-0.002,0.287-0.007,0.43-0.013c0-0.486,0-0.971,0-1.457c-0.205,0.009-0.41,0.018-0.614,0.026
			C121.535,27.067,121.535,27.221,121.535,27.376z M122.318,29.462c0.061-0.01,0.123-0.021,0.184-0.033c0,0.326,0,0.653,0,0.979
			c0.143-0.019,0.287-0.042,0.43-0.068c0-0.472,0-0.944,0-1.416c-0.205,0.03-0.41,0.057-0.614,0.08
			C122.318,29.157,122.318,29.31,122.318,29.462z M122.722,26.244c0-0.477,0-0.953,0-1.43c-0.205-0.007-0.409-0.012-0.614-0.012
			c0,0.153,0,0.307,0,0.46c0.061-0.003,0.122-0.007,0.183-0.01c0,0.329,0,0.657,0,0.986
			C122.435,26.24,122.578,26.242,122.722,26.244z M128.699,28.406c0.061-0.006,0.123-0.011,0.184-0.016c0,0.208,0,0.416,0,0.624
			c0.143-0.004,0.287-0.004,0.43,0.001c0-0.306,0-0.613,0-0.919c-0.205,0-0.41,0.007-0.614,0.019
			C128.699,28.212,128.699,28.309,128.699,28.406z M127.423,28.532c0.061-0.013,0.123-0.025,0.184-0.037c0,0.22,0,0.44,0,0.66
			c0.143-0.026,0.287-0.049,0.43-0.069c0-0.315,0-0.631,0-0.946c-0.205,0.023-0.41,0.05-0.614,0.081
			C127.423,28.325,127.423,28.428,127.423,28.532z M123.745,27.526c0-0.381-0.209-0.678-0.57-0.674
			c-0.361,0.004-0.57,0.326-0.57,0.735c0,0.432,0.201,0.744,0.57,0.708C123.544,28.257,123.745,27.928,123.745,27.526z
			 M123.175,27.881c-0.122,0.009-0.155-0.191-0.155-0.3c0-0.116,0.025-0.291,0.155-0.295c0.13-0.005,0.155,0.165,0.155,0.279
			C123.33,27.671,123.297,27.872,123.175,27.881z"/>
	</g>
	<g>
		<path style="fill:#FFFFFF;" d="M29.63,24.333c-0.346-0.55-0.835-0.906-1.557-0.906c-0.824,0-1.445,0.662-1.445,1.466
			c0,0.804,0.763,1.14,1.384,1.435l1.466,0.763c0.58,0.366,0.875,0.835,0.875,1.527c0,1.272-1.16,2.229-2.402,2.229
			c-1.069,0-1.903-0.662-2.259-1.649l0.427-0.193c0.326,0.814,0.926,1.384,1.852,1.384c1.008,0,1.893-0.794,1.893-1.811
			c0-0.865-0.885-1.232-1.547-1.557l-1.384-0.733c-0.509-0.315-0.794-0.763-0.794-1.374c0-1.14,0.814-1.944,1.964-1.944
			c0.773,0,1.506,0.418,1.873,1.079L29.63,24.333z"/>
		<path style="fill:#FFFFFF;" d="M38.934,24.639c-0.591-0.723-1.629-1.211-2.575-1.211c-1.913,0-3.491,1.649-3.491,3.532
			c0,0.896,0.387,1.74,1.028,2.371c0.641,0.61,1.557,1.058,2.463,1.058c0.886,0,2.005-0.478,2.575-1.17v0.672
			c-0.723,0.6-1.608,0.957-2.555,0.957c-2.137,0-4-1.781-4-3.929c0-2.178,1.832-3.949,4.01-3.949c0.926,0,1.862,0.366,2.544,0.998
			V24.639z"/>
		<path style="fill:#FFFFFF;" d="M42.07,30.746h-0.489v-7.674h0.489V30.746z"/>
		<path style="fill:#FFFFFF;" d="M45.43,23.529v2.789h3.094v0.458H45.43v3.512h3.175v0.458h-3.664v-7.674h3.664v0.458H45.43z"/>
		<path style="fill:#FFFFFF;" d="M58.255,31l-6.443-6.85v6.595h-0.489V22.97l6.443,6.799v-6.697h0.489V31z"/>
		<path style="fill:#FFFFFF;" d="M62.837,30.746h-0.489v-7.216h-1.985v-0.458h4.458v0.458h-1.984V30.746z"/>
		<path style="fill:#FFFFFF;" d="M67.418,30.746h-0.489v-7.674h0.489V30.746z"/>
		<path style="fill:#FFFFFF;" d="M70.777,23.529v2.789h2.535v0.458h-2.535v3.97h-0.489v-7.674h3.094v0.458H70.777z"/>
		<path style="fill:#FFFFFF;" d="M76.519,30.746H76.03v-7.674h0.489V30.746z"/>
		<path style="fill:#FFFFFF;" d="M85.486,24.639c-0.59-0.723-1.628-1.211-2.575-1.211c-1.914,0-3.491,1.649-3.491,3.532
			c0,0.896,0.387,1.74,1.028,2.371c0.641,0.61,1.557,1.058,2.463,1.058c0.885,0,2.005-0.478,2.575-1.17v0.672
			c-0.722,0.6-1.608,0.957-2.554,0.957c-2.137,0-4-1.781-4-3.929c0-2.178,1.832-3.949,4.01-3.949c0.927,0,1.863,0.366,2.544,0.998
			V24.639z"/>
		<path style="fill:#3498C2;" d="M90.607,23.071h1.588c2.351,0,4.306,1.242,4.306,3.797c0,2.616-1.914,3.878-4.336,3.878h-1.557
			V23.071z M91.564,29.87H91.9c1.954,0,3.644-0.733,3.644-2.962c0-2.239-1.689-2.961-3.644-2.961h-0.336V29.87z"/>
		<path style="fill:#3498C2;" d="M100.583,28.822l-0.875,1.924H98.68l3.664-8l3.664,8h-1.028l-0.875-1.924H100.583z M102.344,24.842
			l-1.364,3.104h2.728L102.344,24.842z"/>
		<path style="fill:#3498C2;" d="M109.938,30.746h-0.956v-6.799h-1.822v-0.875h4.601v0.875h-1.822V30.746z"/>
		<path style="fill:#3498C2;" d="M114.825,28.822l-0.875,1.924h-1.028l3.664-8l3.664,8h-1.028l-0.875-1.924H114.825z
			 M116.586,24.842l-1.364,3.104h2.727L116.586,24.842z"/>
	</g>
</g>
</svg>
